<?xml version="1.0" encoding="utf-8"?>
<!-- Generator: Adobe Illustrator 19.0.0, SVG Export Plug-In . SVG Version: 6.00 Build 0)  -->
<svg version="1.1" id="Layer_1" xmlns="http://www.w3.org/2000/svg" xmlns:xlink="http://www.w3.org/1999/xlink" x="0px" y="0px"
	 viewBox="81 17.6 773.9 758.4" style="enable-background:new 81 17.6 773.9 758.4;" xml:space="preserve">
<style type="text/css">
	.st0{fill:#867871;}
	.st1{fill:#867771;}
	.st2{fill:#887A74;}
	.st3{fill:#887B74;}
	.st4{fill:#FEFEFE;}
</style>
<g>
	<path class="st0" d="M81.1,439.1c1.4,0.1,2.1,1.4,3.1,2.1c4.5,3.6,9.6,3.7,14.9,2.8c1.6-0.2,1.9-0.9,1.3-2.4
		c-2.1-5-3.4-10.2-3.1-15.8c0.1-2.4,0.2-4.8,0.4-7.2c0.1-1.1-0.1-1.7-1.5-1.8c-1.5-0.1-2.8-0.6-4.1-1.6c-1.4-1-2-2.4-1.7-4.1
		c0.3-1.8,1.5-2.7,3.1-3s3.3-0.7,5.1-0.3c0.9,0.2,1.4,0.2,1.5-0.9c0.3-6.2,2.8-11.8,4.9-17.6c0.5-1.5,0.4-2.2-1-2.9
		c-1.6-0.7-2.9-1.7-4.2-3c-1-1.1-1.8-2.4-1.3-4c0.5-1.7,1.8-2.6,3.6-3c1.7-0.3,3.2-0.2,4.8,0.4c1.5,0.6,2.1,0.1,2.7-1.3
		c10-20.3,22.2-39.1,36.9-56.3c10.8-12.6,23.3-23.5,36.6-33.6c1.9-1.5,3.9-2.8,6.3-4.7c-1.5,0-2.4,0-3.3,0
		c-3.7,0.1-7.2-0.1-10.8-0.9c-11.3-2.7-14-8.8-13.5-19.1c0.2-3.6,0.5-7.2-0.1-10.8c-0.6-2.9-1.6-3.6-4.3-2.4c-1.4,0.5-1.9,0.2-2.2-1
		c-1-4.1,0.3-7.5,3-10.3c2.5-2.5,6.1-2.9,9.5-1.1c4.9,2.4,7.5,6.3,7.7,11.8c0.1,3.2-0.3,6.4-0.8,9.5c-0.7,4.2,0.6,7.3,4.3,9.6
		c5.3,3.4,11.5,4.1,17.5,5.6c4.3,1.1,8.2,0.4,12-1.6c3.6-1.8,7.2-3,11-4.3c3.8-1.1,7.5-2,11.9-2.9c-4.2-2.8-7.8-5.3-11.5-7.9
		c-7-4.9-13.4-10.5-19.5-16.4c-9.1-8.8-13.2-20-15.5-31.9c-2.4-12.3-2.4-24.6,1.8-36.6c2-5.7,4.9-11,9.1-15.5
		c5.5-6,12.8-7.7,20.6-7.3c1.8,0.1,2.5-0.4,3-2.2c2.3-7.9,5.6-15.4,12-20.9c8.5-7.3,21.4-5.1,27.9,0.4c5.3,4.6,5.1,10.7,3.4,16.8
		c-0.3,1.1-0.7,2.3-1.1,3.6c2,0.1,4,0,5.7,0.3c6.4,1.3,10.1,6,11.1,13.4c1.6,11.3-4,19.2-12.2,25.8c-1.9,1.5-4,2.7-6.1,4.1
		c0.5,0.9,1.6,0.8,2.4,1.1c2.1,0.7,4.2,1.8,5.7,3.3c4.2,4.1,2.8,10.7-2.8,13.5c-1.3,0.6-2.6,1.3-4.1,1.7c-1.9,0.5-3.9,0.8-6.1,1.3
		c1-1.9,2.8-2.6,3.8-4.1c2.5-3.9,1.7-6.4-2.6-7.9c-2.4-0.9-4.9-0.8-7.3-1.3c-1-0.2-1.8,0.5-2.5,1.1c-5.1,3.6-9.7,7.5-14.4,12
		c3.6,0.4,6.9,0.8,9.6,3.1s4.1,5.3,4,8.8c-0.1,3.7-5.5,7.6-11,8.2c1.4-1.7,2.5-3.4,2.7-5.4c0.2-1.7,0-3.2-1.5-4.1
		c-2.8-1.6-5.9-1.7-9-1.4c-0.9,0.1-1.1,0.8-1.5,1.6c-2.3,5.6-3.2,11.5-2.3,17.5c1,6.4,5.6,10.2,10.9,13.3c7.1,4.1,15.2,5.9,23,8.2
		c2.4,0.7,5,2.4,7.1,1.5c2.2-1,2.6-4.2,3.8-6.5c13.3-26.7,25.6-53.7,40.1-79.7c9.5-16.9,22.8-30.6,41.2-38.1
		c12.9-5.2,26.2-6.2,39.6-2.2c9.7,2.8,16.4,9.2,18.3,19.5c0.3,1.5,0.9,1.8,2.4,2c12,1.8,23.2,5.3,32.2,14.1c0.5,0.5,1,0.9,1.5,1.4
		c0.1,0.1,0.1,0.3,0.2,0.6c-7.6,1.8-14.9,4.1-21.9,7.5c-8.4,4.1-16.3,8.9-21.7,16.8c-3.9,5.6-5.7,12.2-7.2,18.8
		c-1.8,8.6-2.3,17.1-2.3,25.8c0,2.2,0.7,3.7,2.9,4.8c8.2,4.2,15.5,9.5,21.6,16.4c9.2,10.2,13.4,22.4,13.5,36.1c0,0.8-0.8,2.4,1,2.5
		l0,0c-0.3,0.8,0.3,1.3,0.8,1.7c1.9,1.5,3.8,2.9,5.6,4.5c7.9,6.5,15.7,13.1,20.2,22.7c2.3,5,4.7,9.9,6.7,15.1c1.6,4,3,7.8,4.7,12.2
		c2.4-6.1,4.5-11.8,6.9-17.3c4.2-9.7,8.9-19.1,17.2-26.1c4.2-3.6,8.4-7.1,12.6-10.5c0.6-0.5,1.7-0.7,1.4-1.9l0,0
		c2.1-0.2,1-1.8,1-2.7c0.2-13.7,4.5-25.7,13.7-36c6.3-6.9,13.7-12.2,21.8-16.5c1.6-0.8,2.4-1.7,2.4-3.4c0-13.1-0.9-26-5.6-38.5
		c-3.6-9.4-10.6-15.6-19-20.6c-8.4-4.9-17.3-8.3-26.7-10.7c-0.5-0.1-1.4,0.1-1.6-0.5c-0.3-0.8,0.5-1.1,1-1.6
		c9.1-9,20.6-12.6,32.8-14.4c1-0.1,1.8-0.3,2-1.6c2.2-12.2,10.5-18.6,21.8-21c16.7-3.4,32.6-0.6,47,8.8c14.4,9.4,25.2,22.2,33,37.4
		c13.6,26.1,26.3,52.6,39.3,79c1.1,2.3,2.3,2.8,4.7,2.1c8-2.4,16.2-4.3,23.9-7.6c3-1.4,5.7-3.1,8.3-5.2c6.2-5,6.9-11.7,5.9-18.9
		c-0.4-2.7-1.1-5.3-2.1-7.9c-0.6-1.6-1.7-2.1-3.1-2c-1.1,0.1-2.4,0.1-3.6,0.3c-2.1,0.3-4.3,0.5-5.1,2.8c-0.8,2.5,0,4.7,1.6,6.7
		c0.4,0.5,1,0.8,1.9,1.6c-3.7-0.2-8.6-2.7-10.5-5c-2.5-3-1.8-8.3,1.7-11.6c2.8-2.7,6.4-3.4,10.3-3.8c-4.9-4.8-10-9.1-15.6-12.9
		c-2.1-1.5-10.7,0.9-12.1,3c-0.9,1.4-0.7,2.7-0.1,4.2c0.8,2.2,2.7,3.7,4.6,5.2c-4.6,0.3-10.5-1.9-13.1-4.9
		c-3.3-3.8-2.8-8.9,1.1-11.9c2.1-1.6,4.6-2.3,7.3-3.6c-3.4-2.2-6.6-4.3-9.3-6.8c-5.3-5-9.1-10.8-9.4-18.3
		c-0.2-5.6,0.7-11.2,5.1-15.4c3.3-3.2,7.5-3.4,12-3.1c-0.8-3-1.9-5.7-2.1-8.8c-0.5-6.5,2.2-11.4,8-14.2c12.5-6,24-2.1,31.4,10.8
		c2.2,3.9,4,8,5,12.4c0.4,1.9,1.4,2,2.9,1.9c7.5-0.4,14.5,1.1,19.9,6.6c5,5,8.3,11.2,10.3,17.9c4.6,14.5,2.9,28.8-0.7,43.4
		c-3.3,13-11.4,22.3-21.1,30.6c-6.6,5.6-13.6,10.8-20.9,15.4c-0.6,0.4-1.4,0.7-1.8,1.6c0.7,0.9,1.9,0.6,2.8,0.8
		c7.8,1.7,15.3,4.5,22.6,7.8c1.9,0.8,3.6,1.1,5.6,0.7c6.6-1.4,13.4-2.1,19.4-5.4c5.1-2.8,6.4-5.3,5.4-11.2c-0.5-3.1-0.8-6.3-0.6-9.5
		c0.3-5.4,4.2-10.1,9.4-11.7c3.3-0.9,6.2-0.1,8.4,2.4c2.5,2.8,3.7,6.2,2.4,10c-0.4,1.3-0.9,1.3-2.1,0.8c-2.7-1.1-3.7-0.5-4.3,2.4
		c-0.7,3.4-0.4,6.8-0.2,10.2c0.2,3.2,0,6.4-0.7,9.4c-0.9,3.6-3,6.1-6.3,7.8c-5.7,3.1-11.9,3.6-18.2,3.3c-0.6,0-1.1,0-2.3,0
		c2.7,2.1,5,3.9,7.4,5.6c30.3,22.2,52.6,51,69.9,84c0.3,0.6,0.7,1.1,0.9,1.9c1.1,3.6,2.8,5.3,7,3.9c2.1-0.7,4.5,0.4,5.5,2.7
		c0.9,2.3-0.7,3.8-2.2,5.2c-1.4,1.4-4.2,1.5-4.4,3.6c-0.1,1.8,1.1,3.8,1.8,5.5c1.5,4.3,3.1,8.6,3.3,13.2c0.1,1,0.5,1.3,1.5,1.1
		c1.7-0.3,3.2-0.3,4.8,0.1c1.9,0.5,3.1,1.5,3.3,3.4c0.2,1.9-0.7,3.2-2.4,4.3c-0.4,0.3-0.9,0.6-1.4,0.6c-4.1-0.1-3.7,2.7-3.2,5.1
		c0.9,7.1-0.1,13.8-2.9,20.4c-0.9,2.2,0.7,2.1,1.9,2.3c6,0.8,11.5,0.1,16.1-4.3c0.4-0.4,0.7-1,1.5-0.8c0,1,0,2.1,0,3.1
		c-3.1,8-9.6,12-17.3,14.7c-10.1,3.6-20.7,5.5-30.9,8.4c-2.3,0.6-4.6,1.6-6.6,2.8c-5.1,3.1-6.9,10.1-4,15.4c1.5,2.6,4.2,4,7.1,3.6
		c2.4-0.3,3.3-1.4,4-4c-0.2,0-0.3-0.2-0.5-0.1c-1.8,0.4-3.7,1.4-4.9-0.6c-1.1-2-0.8-4.2,0.5-6.1c2.4-3.6,8-5.7,11.8-4.6
		c2.8,0.8,5.4,5.3,5.7,9.4c0.5,7.7-3.4,12.8-9.8,16.1c-7.2,3.8-14.9,4.1-22.5,1.1c-8.2-3.1-10.7-10.6-12.5-18.3
		c-1.9-7.5,0.8-13.9,5.4-19.5c1.7-2,0.9-2.7-0.6-3.9c-6.5-5.2-12.4-10.9-16.7-18c-5-8.3-6.4-17.1-2.4-26.2c0.5-1.1,0.1-1.4-0.8-1.8
		c-7.7-2.9-9.1-12.9-5.3-18.7c1.7-2.6,3.9-4.8,6.9-6.5c-0.2,2.4-0.3,4.5-0.5,6.7c-0.4,4.3,1.5,7.2,5.1,9.3c1.3,0.7,2.3,0.7,3.6-0.1
		c4.8-3.3,8.6-7.6,11.4-12.8c0.8-1.5,0.1-1.7-0.9-2.1c-4.6-2.1-6.7-5.4-6.3-9.9c0.6-6.4,4.2-11.6,8.8-12.8c0.2-0.1,0.5,0,1,0.1
		c-0.5,1.8-1.1,3.4-1.6,5.1c-0.7,3.1-0.3,6,2.3,8.2c1,0.8,1.9,0.9,2.5-0.6c8.9-20.9,5.9-43-12.8-58.8c-6.2-5.2-12.3-10.3-18.9-15.1
		c-0.2-0.1-0.3-0.1-0.5-0.2c0.1,0.1,0.2,0.3,0.2,0.4c2.8,5.6,5.6,11.2,6.9,17.3c1.1,5.4,1.5,10.9,0,16.3c-1.3,4.5-4.2,7-8.8,7.4
		c-2,0.1-1.8,0.7-1.4,2.2c0.8,2.5,2.4,4.3,4.5,5.7c3.1,2.2,6.7,3.4,10.3,4.7c-1,1.1-2.3,1-3.3,1.1c-6.6,0.6-13.2,0.3-19.4-2.2
		c-8-3.2-11.7-9.3-11.9-17.8c-0.2-8.3,1.9-15.5,9.4-20.2c0.8-0.5,0.8-1.1,0.8-2c0.4-9.6-3.2-17.9-8.5-25.7c-0.4-0.6-1-1-1.8-1.4
		c-10.8-4.6-21.6-8.9-33.3-10.3c-5.3-0.6-10.7-0.3-15.9,0.5c-2,0.3-2,0.9-1.1,2.5c6.1,11.3,11.9,22.6,17.9,33.9
		c11.3,21.3,23.4,42.2,32.6,64.6c3.9,9.4,8,18.5,12,27.9c1,2.4,2.4,4.3,4.4,5.9c1.6,1.3,2.9,2.6,4.8,4.4c-2.6-0.3-3.8-2.1-5.5-2.5
		c-0.1-0.1,0-0.5-0.3-0.1c0.1,0,0.2,0,0.3,0.1c-0.1,2.3,1.6,4.1,2.1,6.2c0.2,0.9,0.6,1.8,0.9,2.6c0,0.2,0,0.4-0.1,0.6
		c-2.7-4.2-5.4-8.4-8.2-12.4c-0.4-0.7-0.9-1.4-1.8-1.9c-17-11.7-32.6-25.4-48.6-38.6c-15.9-13.1-31.6-26.4-46.7-40.6
		c-9.4-8.8-18.6-17.8-24.6-29.6c-4.1-8.2-6.7-16.5-4.9-25.8c1.4-6.9,5.2-12.4,9.9-17.5c3.7-3.9,7.6-7.3,12.4-10.6
		c-0.1,1.5-1,1.9-1.6,2.4c-6,5.9-11,12.3-13,20.7c-2.7,10.7,0,20.5,4.9,30c4.6,9,11.5,16.2,18.7,23.1c21.9,20.9,44.9,40.7,67.8,60.6
		c3.4,3,7,6.2,10.5,9.1c0.9,0.8,1.8,1.9,3.2,2.3c0.2-1.6-0.9-2.1-1.7-2.9c-10.7-11.9-22.8-22.2-34.7-32.6
		c-13.3-11.6-27.3-22.6-39.8-35c-7.8-7.7-14.4-16.5-20.4-25.8c-7.6-12-7.7-24-1.5-36.6c4.2-8.5,10.3-15.1,18-20.4
		c0.7-0.5,1.6-0.8,2-2c-3.3-0.2-6.4-0.6-9.6,1.4c-7.2,4.5-14.5,8.8-20.5,15.1c-5.9,6.1-10.8,12.6-12.2,21.3
		c-1.1,6.5,0.5,12.4,3.1,18.2c5.2,11.4,13.2,20.8,21.7,29.8c12.2,12.9,26.3,23.3,40.3,34c15.6,11.9,30.1,25,44.8,37.9
		c0.8,0.7,1.5,1.7,2.2,2.5c0,0.2,0,0.4-0.1,0.6c-6.5-4.1-12.5-8.7-18.7-13.2c-8.8-6.4-17.6-12.9-26.3-19.3l0,0
		c-0.4-0.3-0.7-0.7-1.4-0.5l0,0c0.1-0.4-0.2-0.5-0.5-0.5l0,0c-2.7-3-6.2-5.1-9.3-7.5c-16.6-13.3-32.5-27.3-46.2-43.7
		c-6.2-7.3-11.5-15.2-15.5-23.9c-5.3-11.7-3.4-22.3,4.6-32.1c6.4-7.8,13.9-13.9,22.7-18.7c0.8-0.4,1.9-0.6,2.3-1.4
		c-6.8,0-13.7-0.3-20.6,0.1c-10,0.5-20,1.9-29.8,3.8c-18.2,3.4-32.1,13.4-43,27.9c-6.1,8-10.3,17-12,27c-1.5,8.4-1.1,16.6,1.4,24.8
		c2,6.4,6.6,11.2,11.1,15.9c12.1,12.3,26.1,22.6,40.2,32.5c22.5,15.7,45.8,30,69.5,43.7c0.5,0.3,1.3,0.3,1.4,1.6
		c-3.9-1.5-7.5-2.7-11.1-4.2c-6.2-2.5-12.4-5-18.6-7.5c-0.5-0.2-1.1-0.3-1.7-0.4c-0.1-0.2-0.2-0.4-0.4-0.1c0,0,0.2,0.2,0.3,0.3
		c2.2,4.2,4.7,8.2,6.8,12.3c7.8,16.2,13.5,33.1,18.9,50.3c0.6,2,1.6,3.1,3.6,3.9c3.8,1.4,7.4,3,11.2,4.7c1.5,0.6,2.2,0.7,2-1.3
		c-1.9-14.9-3.7-30-5.4-44.9c-0.4-3.1-0.7-6.3-1.3-9.4c-0.3-2.2,0.7-1.7,2-1.1c8.3,3.3,16.8,4.7,25.7,4.2c10.3-0.6,18.9-5,26.4-11.8
		c3.6-3.1,6.5-6.8,9.5-11c2.4,9.9,4.7,19.3,6.9,28.7c8,33.7,16.1,67.3,24,101.1c5.3,22.6,11,45.2,15.5,67.9
		c3.1,16.2,6,32.5,8.6,48.8c2.5,15.8,5,31.7,7.6,47.5c0.5,3.2-0.1,5.3-2.8,7.4c-11.4,8.8-24.2,14.1-38.3,16.8
		c-12.5,2.4-25.2,3.2-37.9,2.6c-14.9-0.7-29.5-3.6-42.5-11.4c-5.9-3.4-6-3.4-4.6-9.9c2.7-13.2,5-26.4,7-39.7
		c2.1-13.9,3.7-27.9,4.9-41.9c1.1-13.2,1.9-26.4,1.8-39.6c-0.1-16.6-0.8-33.1-2.3-49.6c-1.1-13-2.2-25.8-3.2-38.8
		c-0.2-2.8-0.6-5.7-1-9.2c-3.1,5-6.2,9.5-8.9,14.1c-8.7,14.7-21.1,25.8-34.7,36c-4.7,3.6-9.4,7.1-14.3,11c3.7,1.9,6.9,3.7,10,5.6
		c6.9,4.3,12,10.1,15.6,17.5c0.9,2,1.8,4.1,1.9,6.4c0.2,5.3-2.7,8.2-8.2,7.6c-3.4-0.3-6.7-1.5-9.8-2.8c-6.6-2.9-12.5-6.7-18.9-11.2
		c5.3,0.6,10,1,14.7,1.7c2.4,0.3,4.8,0.3,7.2,0.3c4.2-0.1,5.6-2.6,3.6-6.2c-4.2-7.1-10.6-11.2-18.6-12.3
		c-10.9-1.5-21.6-0.4-32.8,1.7c0.8,0.5,1.4,0.8,1.8,1.1c3.8,2.8,4.1,6.6,0.8,9.8c-2.9,2.8-6.3,5-9.8,7c-1,0.5-1.8,0.5-2.5-0.4
		c-0.3-0.4-0.7-0.7-1-1.1c-5-6.2-4.9-8.6,0.4-14.4c0.3-0.3,0.7-0.5,0.5-1.3c-11.4,2.5-23.6,2.9-30.3,15.1c-0.1,0-0.2-0.1-0.2-0.1
		c-2.5-2.8-3-2.7-5.1,0.7c-1.8,2.9-1.8,6.1-1.7,9.2c0,0.9,0,1.9,0,3c-1.8-0.3-2.5-1.8-3.3-2.9c-4.8-7.2-3.6-16.2,3.1-23.5
		c6-6.6,13.9-9.2,22.3-11c8.9-1.9,17.9-2.9,27-3.8c6.4-0.6,12.1-3.6,17.9-6.4c9.9-4.9,19-11.1,27.1-18.6
		c7.5-7.1,12.5-16.1,17.1-25.2c2.7-5.4,5.1-11.1,7.3-16.7c0.5-1.4,0.8-2.6,0.4-4c-6.8-23.2-15.4-45.6-30.2-65
		c-2.9-3.8-7.4-4.3-11.4-7c0.8,7.3-0.1,14-1.7,20.7c-1.4,5.4-4.1,9.8-9.2,12.3c-1.4,0.6-1.7,1.9-2.1,3c-2.6,6.9-5.2,13.8-8.9,20.3
		c-5.1,9.2-12.3,16.7-20.2,23.5c-0.8,0.7-1.7,1.5-2.7,2.4c3.2,1.7,6,3.4,8.3,6c2.8,3.1,5,6.8,4.6,11.1c-0.6,5.5-4.7,8.2-9.3,10.2
		c-0.5-0.9,0.1-1.6,0.3-2.1c4.6-8.9,1.3-14.3-7-18.9c-5.6-3.1-10.8-1-16.1,0.5c-10,3-17.5,9.6-24.5,16.9c-0.5,0.5-0.9,1-1.4,1.5
		c-0.1,0.1-0.3,0.1-0.7,0.1c-0.1-10.1,2.8-18.7,11.8-24.7c-4.4-0.7-8.6-0.9-12.4,1.7c-3.7,2.5-5.6,6.6-8.4,10.1
		c-0.9-10.8,6.3-19.2,16.6-20.1c3-0.2,6-0.1,9,0.2c3.1,0.2,6.1-0.7,9.1-1.7c9-2.8,17.6-6.5,23.8-14c6.6-7.9,10.6-17.1,13.3-27.1
		c0.1-0.4,0.2-0.9,0-1.3c-3.3-6.1-3.8-13-5.2-19.5c-2.5-10.8-5-21.5-7.4-32.3c-0.4-1.9-1.5-3.1-3-4.2c-11.5-7.8-22.2-16.5-31.3-27.1
		c-5.7-6.7-10.5-14-13.3-22.5c-0.1-0.4-0.4-0.7-0.6-1.1c-19,13.4-21,27.3-9.4,44.2c0.9-0.7,0.8-2,1.3-2.9c1-2.4,2.4-4.6,4.8-5.9
		c2.8-1.5,5.7-1.7,8.5,0.4c3,2.3,3.9,5.5,3.1,9c-0.7,3.6-3.3,5.6-6.8,6.7c-1.9,0.5-3.8,0-6,0c2.5,3.6,5.1,6.8,7.2,10.3
		c3.6,6.3,5.6,13.1,7.5,19.9c0.5,1.9,1,2.2,2.7,1.3c2.2-1.3,4.6-1.7,7.2-1.1c3.6,0.7,5.9,2.8,6.3,6c0.4,3.2-1.5,6.6-4.4,8
		c-3,1.5-6.1,1.4-9,0c-1.7-0.7-2.3-0.4-2.5,1.3c-0.8,5.5-2.7,10.7-5.9,15.3c-0.9,1.4-0.3,1.7,0.7,2.4c6.7,4.5,6.8,13.5,0.2,16.9
		c-4.1,2.1-9.1,0.9-12.1-3.1c-1.5-2-2.3-1.9-4.1-0.4c-7.3,6-15.9,8.3-25.1,8.6c-0.8,0-1.7,0.1-2.6,0.1c-0.1,0-0.3,0.1-0.7,0.3
		c2.3,1.8,4.4,3.6,4.8,6.6c0.3,2.9-0.5,5.4-2.7,7.4c-3.1,2.8-8,2.6-11-0.4c-3.7-3.8-3-7.9,2.3-13.7c-3.4-0.3-6.7-0.6-10-1
		c-7.1-0.9-13.3-4-18.8-8.4c-1.4-1.1-2-0.8-2.9,0.4c-3.3,4.6-8.5,6-12.6,3.7c-6.5-3.6-6.5-12.4,0.1-16.7c1.7-1,1.6-1.7,0.6-3
		c-2.9-4.2-4.6-8.9-5.4-13.8c-0.4-2.2-0.6-3.1-3.2-2c-5.3,2.3-10.7,0-12.3-4.8c-1.5-4.1,0.7-8.2,4.9-9.2c2.9-0.7,5.9-0.5,8.5,1.1
		c1.4,0.8,1.8,0.5,2.3-0.9c2.3-7.8,4.6-15.8,9.3-22.8c1.8-2.5,3.6-5,5.5-7.7c-2.1-0.1-4.1,0.3-6-0.1c-4.8-1.1-7.8-5.9-6.8-10.9
		c0.8-4.2,4.8-6.9,9.1-6.2c3.7,0.6,5.9,3,7.2,6.4c0.4,1,0.8,2.2,1.3,3.4c7.5-9.9,10.5-22.5,3.2-32.2c-3.1-4.2-6.7-7.8-10.7-11.1
		c-0.7-0.6-1.7-1.7-2.4,0.3c-4.1,11.9-11.7,21.5-20.5,30.2c-7.5,7.3-15.8,13.8-24.5,19.6c-1,0.7-1.8,1.5-2.2,2.9
		c-3.6,15.1-7.2,30-10.1,45.2c-0.3,1.9-0.9,3.7-1.8,5.3c-1,1.9-0.9,3.6-0.1,5.5c4.2,10.3,9.1,20.2,17.2,28.1
		c6.9,6.7,15.2,10.9,24.6,12.5c2.3,0.4,4.5-0.2,6.7-0.4c3.7-0.3,7.1,0.2,10.7,1.1c5.6,1.5,8.8,5.3,10.5,10.7c0.8,2.6,1.7,5.2,1.6,9
		c-4.9-8.4-10.2-15.2-21.4-12.4c9.6,5.7,12.3,14.7,12.3,24.9c-0.9,0.2-1-0.6-1.5-1c-8.4-9.5-18.2-16.7-30.8-19.4
		c-6.7-1.5-15.1,2.1-18.4,8.2c-1.7,3-1.4,6.2-0.2,9.2c0.5,1.6,1.4,2.9,2,4.4c-8-2.1-12.5-9.3-8-17.1c2.1-3.7,5-6.6,8.8-8.5
		c2.1-1,2.1-1.7,0.3-3.1c-7.2-6.1-13.8-13-19-20.9c-4.4-6.8-7.2-14.4-10.1-21.9c-0.9-2.4-2-4.3-4.4-5.6c-5.1-2.9-7-8-8-13.5
		c-1.1-6-2.1-12-1.1-18c-7.9,1.8-12.6,7.3-16.6,13.7c-11.3,17.7-18.9,36.9-24.8,56.9c-0.5,1.9-0.3,3.4,0.3,5.2
		c3.6,9.2,7.7,18,12.5,26.4c7.1,12.6,17.9,21.3,29.9,28.8c5.1,3.1,10.6,5.7,16,8.3c6.9,3.2,14.3,3.2,21.6,4.2
		c9,1.1,18.1,2.3,26.5,5.6c8.5,3.2,14.5,9,17.2,17.9c1.8,6-0.7,13.4-5.7,16.7c0-2.4-0.1-4.6,0-6.7c0.1-2.8-1.3-5.1-2.8-7.3
		c-1.1-1.6-2.3-1.9-3.3,0.1c-0.2,0.3-0.5,0.6-0.8,1c-6.6-12.2-18.9-12.6-30.9-15.3c1.4,1.6,2.3,2.6,3.1,3.8c2.6,3.6,2.7,5.3,0.5,9.2
		c-3.3,5.6-3.9,5.7-9.3,2.2c-2.1-1.4-4.2-2.8-6-4.6c-3.6-3.4-3.2-7,0.6-10c0.4-0.3,0.8-0.6,1.5-1c-3.3-1.1-6.7-1.4-9.8-1.7
		c-8.3-0.9-16.6-1.4-24.9,0.4c-7.1,1.5-12.5,5.5-16.2,11.7c-2.3,3.8-0.7,6.3,3.7,6.4c7.1,0.1,14-1.1,21-2c0,0.9-0.8,1-1.3,1.4
		c-6.8,4.7-13.8,9.1-21.7,11.6c-1.3,0.4-2.6,0.7-4,0.9c-6.9,1.1-11-3.1-8.9-9.8c2.4-7.6,7-13.7,13.2-18.6c4.2-3.3,8.8-6,14-8.5
		c-3.2-2.4-6.3-4.7-9.3-7c-9.4-7.3-19.1-14.3-27.3-23.1c-6.7-7.2-11.7-15.6-17-23.8c-1.4-2.1-2.6-4.4-4.4-7.2
		c-0.5,5.5-1.1,10.3-1.6,15.2c-1.3,14.2-2.5,28.4-3.4,42.6c-0.7,10.7-1.1,21.4-1.5,32.2c-0.4,14.6,0.2,29.2,1.4,43.8
		c1.1,15.7,3,31.3,5.4,46.7c2.2,14.3,4.6,28.6,7.7,42.7c0.3,1.6-0.6,2.2-1.5,2.9c-5.7,4.5-12.3,7.4-19.2,9.6
		c-15.5,4.9-31.4,5.4-47.3,4.3c-11.3-0.7-22.4-2.5-33-6.4c-9-3.3-17.3-7.7-24.8-14c-1.3-1.1-1.9-2.1-1.6-4
		c2.8-17.1,5.4-34.4,8.2-51.5c2.5-15.8,5.2-31.5,8.3-47.1c3.8-19.6,8.7-39,13.2-58.4c5.7-24.4,11.5-48.7,17.3-73
		c5.2-21.9,10.5-43.8,15.8-66.2c16.4,23.3,37.9,28.1,64,17.9c-2.5,19.5-4.9,38.8-7,58.4c3.1-1.4,6-2.8,9-3.7
		c5.3-1.5,7.7-4.8,9.3-10.1c5.1-17,11.2-33.9,19.4-49.8c1.5-2.8,3.1-5.6,5.1-9.1c-11,4.5-21.2,8.9-31.8,12.4
		c-0.1-0.2-0.2-0.4-0.3-0.5c2-1.1,4-2.3,5.9-3.4c30.1-17.7,59.8-36,87.3-57.6c7.9-6.3,15.5-13.1,22.3-20.6c6.3-7,8.7-15.2,9-24.2
		c0.6-20-8.4-35.5-22.1-49.2c-10.7-10.7-23.7-15.7-38-18.3c-11.8-2.1-23.8-3.1-35.8-3.2c-3.4,0-6.8-0.5-10.9-0.1
		c2.2,1.3,4,2.3,5.9,3.3c9.1,5.4,16.7,12.2,22.6,21.1c5.3,8,6.2,16.3,2.9,25.2c-3.4,9.3-8.9,17.5-15.2,25
		c-14.8,18.2-32.4,33.7-50.9,48c-2.1,1.6-4.5,2.8-6.1,5l0,0c-0.4,0-0.6,0.1-0.5,0.5l0,0c-0.9,0-1.6,0.2-1,1.4l0,0
		c-1.3-0.6-1.9,0.4-2.6,1c-13.8,10.1-27.6,20.3-41.6,30.1c-0.7,0.5-1.6,0.9-2.4,1.5c-0.1-0.1-0.3-0.3-0.4-0.4
		c9.1-8.5,18.6-16.3,27.9-24.5c12.9-11.3,26.9-21.1,40.1-31.9c15.3-12.3,29.4-25.9,39.6-42.9c3.2-5.3,5.7-11,6.5-17.2
		c0.8-7.4-1.6-14.1-5.7-20.1c-5.3-7.6-12-13.8-20-18.6c-2.2-1.4-4.5-2.5-6.6-4.1c-3-2.4-6.5-2.2-10.2-1.8c1.5,2.1,3.4,3.1,5.1,4.4
		c11.6,8.5,17.3,20.4,19.6,34.1c0.7,4.3-0.8,8.5-2.5,12.4c-4.7,11.3-12.2,20.7-20.2,29.7c-8.4,9.4-18.3,17.1-27.7,25.4
		c-12.4,10.9-25.3,21.4-37.4,32.8c-5.2,4.9-10.2,10-15.1,15.5c-0.4,0.5-1.3,0.9-1,2.3c1-0.8,2-1.6,2.8-2.3
		c19.1-16.8,38.6-33.3,57.5-50.5c11.1-10,22.5-19.8,32.3-31c8.6-9.8,14.5-21.1,14.5-34.6c0-8.8-3.4-16.3-9-23
		c-2.1-2.5-4.4-4.9-6.5-7.5c3.1,1.6,5.6,3.9,8.3,6.3c5,4.6,9.6,9.6,12.3,16c3.9,9.3,2.3,18.3-1.5,27.3
		c-4.4,10.3-11.2,18.8-19.1,26.5c-17.7,17.1-36.5,32.9-55.3,48.6c-13,10.8-25.8,21.8-39.4,31.9c-5.4,4-10.8,7.8-13.9,14.1
		c-0.8,1.6-1.9,3.1-2.8,4.6c-0.1-0.2-0.3-0.4-0.4-0.6c1-2.5,2-5,3.1-8c-2.5,1.5-4.6,2.8-6.7,4.1c-0.1-0.1-0.1-0.1-0.2-0.2
		c0.5-0.5,0.9-1.3,1.6-1.7c5.6-3.9,8.6-9.4,11.2-15.6c7.2-17.3,14.3-34.8,23.1-51.3c9.1-17.1,18.3-34.2,27.4-51.3
		c3.1-6,6.2-12,9.4-18c0.8-1.6,0.3-1.8-1-2c-8.9-1.6-17.6-1-26.2,1.4c-7.9,2.2-15.6,5.1-23.2,8.4c-0.7,0.3-1.4,0.7-1.8,1.4
		c-5.1,7.7-8.9,15.9-8.5,25.4c0,0.9,0,1.8,1,2.4c8,5.1,9.8,13,9.1,21.7c-0.9,11.9-9,16-17.9,17.9c-5.4,1.1-11,1.3-16.7-0.3
		c0.6-0.9,1.5-1,2.2-1.3c0.8-0.3,1.7-0.5,2.4-0.9c4.1-2,8.4-3.8,10.1-8.6c0.6-1.6,0.7-2.3-1.5-2.5c-5.7-0.5-8.9-4.8-9.4-11.9
		c-0.6-9.6,2.2-18.3,6.6-26.7c0.4-0.8,0.8-1.7,1.3-2.5c0.1-0.2,0.1-0.3,0.2-0.5c-0.2,0.1-0.3,0.1-0.5,0.2
		c-8.5,6.4-18.4,12.8-25.6,22.1c-12.1,15.7-12.6,32.9-5.3,50.8c0.7,1.7,1.5,1.9,2.8,0.6c2.4-2.2,2.7-4.8,2.2-7.7
		c-0.1-0.9-0.6-1.8-0.8-2.7c-0.2-0.8-1.3-1.9-0.5-2.6c0.8-0.7,2,0.1,2.8,0.6c5.1,2.7,8.3,11.3,6.1,16.6c-1,2.4-2.8,4.1-5.2,5
		c-1.6,0.6-2,1.1-1,2.8c2.8,4.7,6.3,8.8,10.8,11.9c1.5,1,2.6,1.1,4.2,0.2c3.1-1.9,4.9-4.5,4.8-8.2c-0.1-2.5-0.1-4.9-0.7-7.5
		c6.9,3.1,10.5,10.3,8.7,17.1c-0.9,3.8-3.1,6.5-6.8,7.9c-0.8,0.3-1.7,0.3-1,1.7c4.3,9.6,2.5,18.6-2.8,27.2
		c-4.2,6.6-9.7,11.9-15.8,16.8c-2.6,2.2-2.6,2.1-0.6,4.8c3.2,4.4,5.9,9,5.5,14.6c-0.4,6.4-2.2,12.3-6.1,17.5
		c-2.9,3.9-7.1,6-11.8,6.6c-8.8,1.1-16.8-0.1-23.2-6.8c-4.4-4.6-5.4-11.2-2.8-16.7c1.9-4,4.9-5.5,9.2-4.5c4.4,1,7.9,4.6,8,7.9
		c0,3.4-1.3,4.5-4.6,3.7c-0.4-0.1-0.7-0.4-1.4,0c0.3,2,1.5,3.3,3.6,3.8c2.7,0.5,5.1-0.1,6.9-2.3c3.9-4.8,2.4-12.8-3-16.3
		c-4.4-2.8-9.5-3.9-14.5-4.9c-8.2-1.8-16.1-4-24-6.7c-7.5-2.6-13.6-6.8-16.6-14.5C81.1,441.2,81.1,440.2,81.1,439.1z M291.5,229.1
		c0.5,0.1,0.7,0.2,1,0.2c15.3,0,30.5,0.5,45.8,1.9c13.7,1.3,27.3,3.1,40.2,7.9c1.9,0.7,2.4,0.2,2.5-1.6c0.5-6.2,1.3-12.3,2.3-18.4
		c1.6-9.4,3.4-18.6,7.9-27.3c4.3-8.4,6.9-17.3,7.9-26.8c0.9-9.3-3.2-16.6-11.9-20.1c-13.4-5.1-26.2-4-38.5,3.7
		c-12.1,7.5-21.8,17.5-29.7,29.3c-9,13.7-16.1,28.3-23.6,42.9C294.2,223.5,293,226.3,291.5,229.1z M636.5,229.4c1.7,0,3.2,0,4.9,0
		c3,0,3.1-0.1,1.8-2.7c-5.9-11.7-11.9-23.2-18.1-34.7c-8.2-15.1-18.1-28.5-31.8-39c-12.1-9.3-25.4-13.3-40.6-9.4
		c-11.4,2.9-17.2,10.9-16.1,22.1c0.9,8.9,3.4,17.3,7.4,25.3c3.2,6.6,5.6,13.4,7.1,20.6c1.6,8,2.8,16.2,3.4,24.5
		c0.3,4.1,0.3,4.1,4.1,2.7c6.9-2.5,13.9-4.2,21.1-5.3C598.7,230.4,617.6,229.7,636.5,229.4z M156.5,422.1c-0.1-4.9-2.7-8.3-6.6-11
		c-8.8-6.1-16.7-12.9-23.4-21.2c-1.1-1.4-1.7-1.1-2.6,0c-7.9,9.8-10.8,20.9-8.5,33.2c2.5,13.2,13.5,19.5,23.6,22.1
		c1.1,0.3,2.1-0.1,3-0.8c2.8-2.4,5.5-4.9,7.8-7.8C153.3,432.3,156.3,427.8,156.5,422.1z M818.5,416.5c0-10.6-2.9-19-9.1-26.5
		c-1.1-1.5-1.8-1.3-2.8,0.1c-6.7,8.2-14.5,15.1-23.2,21c-6.4,4.4-8.3,10.7-5,17.8c3,6.6,7.9,11.5,13.4,16.1c0.8,0.7,1.8,0.5,2.7,0.3
		C807.7,441.8,819,432.6,818.5,416.5z M448.2,406c0.1,11.1,5.9,18.7,14.8,22.6c3.2,1.5,6.5,1.6,9.7,0.1c2.7-1.1,5.2-2.6,7.4-4.6
		c7-6.1,9.9-15.4,5.5-24.1c-4.1-8.2-10.2-14.5-16.7-20.7c-1-1-1.7-0.3-2.3,0.3c-4.6,4.1-8.8,8.5-12.3,13.5
		C451.1,397.8,448.2,402.7,448.2,406z M254.4,612.4c1.9,0,3.8-0.1,5.6,0c2,0.2,2.3-0.7,2.2-2.4c-0.2-2.9-0.4-5.9-0.4-8.8
		c0-1.7-0.5-1.6-2-1.5c-8,0.7-15.8-0.1-22.9-4.3c-6.3-3.7-11.1-8.9-15.5-14.6c-1-1.5-1.8-1.8-3.1-0.4c-0.9,0.8-2,1.7-3.1,2.2
		c-10.7,5.7-21.9,8.7-34.2,6.9c-1.5-0.2-2.2,0.2-2.5,1.7c-0.6,3-1.3,6.1-2,9c-0.3,1.3,0,1.9,1.3,2.3c3.7,1.3,7.3,1.6,11.2,1.8
		c9.5,0.3,18.3-2.3,26.8-6.4c1.8-0.8,2.8-0.7,4.2,0.8c2.6,3,5.7,5.5,9.2,7.8C236.8,611.8,245.5,612.4,254.4,612.4z M681.5,612.5
		c14.1-0.1,23.5-1.6,35.2-14.4c0.8-0.9,1.6-0.6,2.5-0.2c3.2,1.6,6.6,2.8,10,4c9.2,3,18.5,3.4,27.9,1.3c1.8-0.4,2.6-1,2-3.2
		c-0.8-2.6-1.4-5.3-1.8-8c-0.3-1.8-1-2.3-2.9-2.1c-12.2,1.6-23.6-1.3-34.3-7.3c-1.6-0.8-3.2-3-4.4-2.7c-1.5,0.4-2.4,2.6-3.7,4.1
		c-8.2,10-18.1,16.7-31.7,16.3c-2-0.1-5.1-1-5.7-0.1c-1,1.5-0.5,4.1-0.7,6.2c-0.4,6.3-0.4,6.3,5.7,6.3
		C680.3,612.5,680.9,612.5,681.5,612.5z M260.3,277.8c-3.3,6-6.3,12-9.9,17.6c-3.2,4.8-2.5,8.9,0.3,13.3c0.7,1,1.4,2.2,2.1,3.2
		c5.4,7.8,12.3,13.6,22.2,14.9c1,0.1,1.8,0.1,2.5-0.6c3.9-4,7.7-7.8,11.6-11.7c1.1-1.1,0.7-1.6-0.5-2.1c-3-1.1-5.9-2.9-8.7-4.6
		c-9.9-5.9-16.5-14-18.5-25.6C261.2,280.8,261.4,279.3,260.3,277.8z M675.6,277.8c-0.7,1-0.6,2-0.8,2.9c-1.5,7.9-4,15.3-10.3,20.8
		c-5.1,4.5-10.8,8.3-17,10.9c-1.7,0.7-1.4,1.3-0.3,2.3c3.8,3.8,7.5,7.5,11.2,11.4c0.8,0.8,1.6,1,2.7,0.8
		c13.9-1.7,23.3-14.4,26.7-23.6c0.4-1.1,0.7-2.5,0-3.8C683.6,292.3,679.7,285.2,675.6,277.8z M261.6,444.7c2.7-0.2,6.2-0.5,9.5-0.8
		c0.9-0.1,1.6-0.4,1.8-1.5c0.4-3.7,0.7-7.3,1.3-11c0.2-1.5-0.5-1.5-1.7-1.1c-3.2,0.7-6.6,1.1-9.9,1.5c-7.6,0.5-15.1,0.2-22.2-2.9
		c-7.4-3.2-13.7-8-19.6-13.4c-1.3-1-1.7-1.1-2.1,0.6c-0.8,3.7-1.9,7.3-2.8,11c-0.3,1.3,0,2.1,0.9,2.9c5.3,4.7,11.1,8.7,17.8,11.1
		C243.1,443.8,252,444.1,261.6,444.7z M715.3,415.2c-1.1,1-2,1.8-2.9,2.6c-9.5,8.3-20.1,14.3-33.2,14.1c-5.1-0.1-10.2-0.5-15.3-1.7
		c-2-0.4-2.2,0.2-2,1.9c0.4,3.2,0.8,6.5,1,9.7c0.1,1.6,0.6,2,2.1,2.1c9.4,1.3,18.8,0.4,28.1-1c8.7-1.4,16.3-4.9,23.1-10.3
		c2-1.6,2.8-3,2-5.6C717.1,423.2,716.4,419.5,715.3,415.2z M566.1,378.1c0,0.6-0.1,0.9,0,1.3c1.3,6.2,2.4,12.4,3.7,18.6
		c1.4,6.5,2.6,13,4.3,19.3c1.1,4.6,4,6.3,8.7,5.9c4.1-0.4,6.5-2.9,7.8-6.6c2.7-7.4,2.5-15.2,1.8-22.9c-0.1-1.3-1-1.7-2-2.2
		c-3.3-1.8-6.6-3.7-10-5.2C575.4,383.9,571,380.9,566.1,378.1z M370.3,377.9c-6.4,4.3-12.4,8-18.9,10.6c-6.1,2.4-8.6,6.1-8,12.5
		c0.5,5.3,0.4,10.8,2.4,15.9c1.7,4.4,5,6.5,9.5,6.3c3.9-0.2,5.9-2.2,7.2-7.1c0.1-0.3,0.2-0.6,0.2-1c1.8-8.5,3.4-16.9,5.2-25.4
		C368.7,386,369.5,382.3,370.3,377.9z M718.1,569.3c-1.1-17.5-2.8-34.5-5.2-51.4c-2.4-17.6-5.5-35-9.2-52.4
		c-1-5.2-2.4-10.3-3.6-15.5c-0.4-1.7-1.5-2.8-3.3-2.4c-1.8,0.4-2.2,1.8-1.9,3.4c0.1,0.4,0.2,0.8,0.3,1.3c4,16.4,7.2,32.9,9.9,49.6
		c3.7,22.3,6.2,44.6,7.7,67.2c0.1,2.1-0.3,4.8,2.9,4.6C719,573.5,718,570.8,718.1,569.3z M218.4,571c0,0.9,0.2,2.6,2.4,2.8
		c2.1,0.1,2.8-1.4,2.9-3.1c0-0.4,0.1-0.8,0.1-1.3c1-18.8,3.1-37.4,5.9-56c3-20.8,6.9-41.4,11.9-61.8c0.5-2,0.1-3.3-1.8-3.9
		c-2-0.5-2.8,0.7-3.2,2.4c-0.8,3.4-1.7,6.8-2.4,10.2c-4.3,19.1-7.7,38.5-10.5,57.9C221.5,535.5,219.7,552.8,218.4,571z M721.8,687.1
		c0,6.2,0,12.3,0,18.5c0,1.8,0.7,3.1,2.6,3.2c1.7,0,2.6-1,2.7-2.8c0.1-5.9,0.3-11.7,0.3-17.5c-0.1-16.5-0.7-33.1-1.9-49.6
		c-0.6-9.6-1.5-19.1-2.2-28.7c-0.1-1.9-0.9-3.2-3-3c-2.2,0.2-2.4,1.8-2.2,3.6c0.5,6,0.9,12,1.4,18
		C720.8,648.2,721.8,667.6,721.8,687.1z M209.5,681c0,8.2,0,16.3,0,24.5c0,1.9,0.7,3.4,2.7,3.3c2,0,2.5-1.6,2.5-3.4
		c-0.2-10.8-0.2-21.6,0.1-32.4c0.4-11,0.7-21.9,1.6-32.9c0.7-9.7,1.5-19.5,2.2-29.3c0.1-1.8-0.2-3.4-2.4-3.6
		c-2.1-0.1-2.7,1.3-2.9,3.1c-0.5,6.6-1,13.2-1.6,19.8C210.6,647,210,664,209.5,681z M201.5,210.7c1.7-1,2.2-2.6,2.8-4
		c7-13.8,17.6-24,31.6-30.6c3.1-1.5,6.5-2.8,9.3-4.9c2.7-2,2.5-5-0.4-6.7c-0.6-0.3-1-0.5-1.6,0.1c-3.8,4.8-9.2,7.4-14.4,10.1
		C214.5,182.6,206,195,201.5,210.7z M734.5,211.4c-2.1-7.3-4.7-14.3-9.1-20.7c-5.7-8.4-13.9-13.9-22.7-18.5
		c-3.3-1.8-6.5-3.8-9.2-6.6c-0.6-0.6-0.8-2.2-2.3-1.6c-1.4,0.6-2.4,1.7-2.5,3.3c-0.1,1.6,0.7,2.6,1.9,3.4c2.6,2,5.6,3.1,8.6,4.6
		c10.6,5.2,20.1,11.8,26.7,21.9C728.9,202,731.6,206.7,734.5,211.4z M430,169.5c-5.4-3.2-10.6-5-16.1-5.7c-1.6-0.2-3.3-0.9-4.5-0.4
		c-1.7,0.7-0.4,2.9-0.9,4.4c-0.1,0.2-0.1,0.3-0.1,0.5c-0.2,3.8-2,7.1-3.1,10.8C412.3,173.4,420.5,170.9,430,169.5z M506,169.6
		c9.4,1.3,17.6,4,24.9,9.3c-2.2-4.8-3.7-9.6-3.6-14.8c0-1-0.7-0.9-1.5-0.8C519,164,512.4,165.6,506,169.6z M205.9,397.6
		c-0.1-0.3-0.1-0.7-0.5-0.4c-0.3,0.2-0.5,0.4-0.7,0.6c-0.3,0.3,0.1,0.4,0.2,0.4C205.3,398,205.6,397.8,205.9,397.6z M730.7,397.4
		c-0.1,0.1-0.3,0.2-0.3,0.3c0.1,0.2,0.2,0.3,0.4,0.4c0.1-0.1,0.2-0.3,0.2-0.4C731,397.6,730.8,397.5,730.7,397.4z"/>
	<path class="st1" d="M462.8,776c-2.7-0.7-5.4-1.3-8.2-2.1c-6.6-2.1-11.3-6.5-14.3-12.5c-3.7-7.4-1.3-16.6,5.9-22.7
		c2.4-2.1,5.1-3.9,8-4.9c1.1-0.4,1.7-0.9,1.4-2.3c-4.9-17.8-9.4-35.7-22.3-50.1c-4.1-4.6-8.9-8.4-15.4-9.2
		c-4.6-0.6-8.3,0.9-11.2,4.4c-2.4,2.8-4,6.2-5.3,9.6c-3.2,7.7-6.5,15.5-12.2,21.9c-8.3,9.3-21.2,12.3-31.3,7
		c-6.3-3.3-10.7-8.6-13.8-14.8c-1.3-2.5-2.5-2.9-4.9-2.1c-3.6,1.1-7.3,2-11.1,1.8c-6.1-0.3-10.6-3.3-13.9-8.5
		c-6.3-9.5-6.3-24.4,0.4-33c2.9-3.9,6.8-5.7,11.7-4.7c2.9,0.6,5.1,3.2,5.4,6.2c0.1,1.1-0.3,1.5-1.5,1.5c-1.7,0-3.4,0.1-5.1,0.6
		c-3.8,1.4-5.9,4.2-6,8.5c-0.1,3.4,1.3,6,4.4,7.1c4.1,1.6,7.6,0.2,10.6-2.7c4.1-4,6.5-9,8.9-14.1c0.2-0.4,0.4-0.9,0.6-1.5
		c2.1-3.8,3.6-7.5,0.2-11.5c-0.9-1-1.1-2.7-1.3-4.2c-0.1-1.1,0.1-2.3,1-3c1-0.8,2.3-0.5,3.4,0.1c1.7,0.9,3.1,2.2,4.3,3.7
		c1,1.4,1.9,1.5,3.3,0.4c6-4.3,12.3-7.8,19.6-9.1c16.8-2.9,31.8,1.6,45,12.1c3.2,2.6,6.3,5.5,9.4,8.9c1.3-4,2.3-7.5,3.6-11.2
		c2-6.2,4.3-12.2,9.4-16.5c0.8-0.7,0.6-1.5,0.3-2.3c-0.8-2.2-1.8-4.3-3.1-6.2c-2.3-3.3-5.1-4.2-9-2.6c-0.7,0.3-1.3,0.9-2.1,0.7
		c-0.2-4.1,1.8-7.2,5.4-8.3c5.6-1.6,9.9,1.4,14.6,10.2c1.9-3.3,2.9-6.8,4.2-10.2c1.6-4.5,2.6-9,3.7-13.7c1.4-6.3,4.7-11.1,9.8-14.8
		c1.9-1.4,3.3-1.1,5.1,0.1c5.1,3.8,8.6,8.6,9.8,14.9c1.7,8,4.1,15.9,7.5,23.6c1-0.5,1-1.6,1.5-2.3c2.2-4.3,5.1-7.8,10.5-8
		c5.2-0.2,8.4,3,8.4,8.4c-0.3,0.3-0.6,0.1-0.9,0c-5.4-2.6-8.3-1.7-11.2,3.6c-0.2,0.4-0.4,0.7-0.6,1.1c-2.2,4.4-2.1,4.3,1,7.9
		c2.7,3,4.5,6.7,5.9,10.6c1.5,4.3,2.9,8.6,4.1,13c0.5,2.1,1,2,2.3,0.5c5.5-6.2,12.1-11.3,19.6-14.7c18.1-8.5,35.5-7.6,52,4
		c2,1.4,3.1,1.7,4.7-0.4c0.8-1.1,2.1-2,3.3-2.8c1-0.8,2.4-1.1,3.7-0.4c1.4,0.8,1.4,2.3,1.1,3.7c-0.4,2.5-1.6,4.7-2.9,6.8
		c-0.6,0.9-0.8,1.8-0.4,2.9c2.6,6.3,5.2,12.5,9.3,18.1c1.5,2.1,3.2,3.8,5.5,4.9c4.3,2.3,9.2,1.3,11.3-2.6c2.1-3.9,0.3-9.4-3.7-11.6
		c-2-1.1-4.2-1.5-6.5-1.5c-1.6-0.1-1.8-0.6-1.5-2.1c1.4-5.9,8.6-7.7,14-3.7c3.3,2.5,5.3,6,6.5,9.9c2.6,8.5,1.9,16.7-2.2,24.5
		c-4.2,8-11.2,11.2-20.3,9.5c-2.1-0.4-4.3-0.7-6.3-1.5c-2.1-0.7-3.1-0.4-4.2,1.7c-2.1,4.4-4.9,8.3-8.7,11.5
		c-10.3,9.1-24.4,8.6-34.7-1c-6-5.5-9.3-12.6-12.5-20c-1.5-3.3-2.7-6.9-4.6-10c-4.9-8.6-12.3-10.6-20.9-5.4
		c-7.6,4.6-12.8,11.5-16.8,19c-6.4,11.7-9.9,24.5-13.4,37.2c-0.5,1.7,0.3,2.4,1.8,3c6.6,2.8,11.7,7.2,14.1,14.2
		c3.1,9.4-2.4,20.4-12.3,24.9c-3.4,1.6-7.2,2-10.8,3.1C469.7,776,466.2,776,462.8,776z M400.9,653.9c-4.6-1.6-9-2.2-13.4-2.5
		c-11.7-0.6-21.9,3-27.4,13.8c-4.1,8.3-4.5,16.5,1.3,24.2c3.1,4.3,7.7,5.5,11.4,3.3c1.6-1,2.4-2.6,3.3-4.2
		c5.1-8.3,9.4-16.9,14.9-24.9C393.7,660.1,396.4,656.4,400.9,653.9z M534.6,653.7c4.9,3.3,7.6,6.2,11.6,12.8
		c4.8,7.9,9.4,16,14.3,23.8c2.6,4.3,6.7,4.8,10.8,1.9c1.4-0.9,2.5-2.1,3.4-3.4c7.4-10.7,2.6-25.3-6-31.8
		C558.3,649.1,546.7,650.9,534.6,653.7z"/>
	<path class="st0" d="M468.5,17.7c-0.1,3.7,1.4,6.8,2.6,10c3,8,8.2,14.8,12.2,22.4c2.8,5.1,6.2,9.9,7.4,15.8
		c1.6,7.5,1.3,15.1,0.6,22.6c-0.1,1.4-0.8,3.1,0.1,3.9c0.9,0.8,2.3-0.7,3.3-1.4c2.7-1.5,5.5-2.3,8.5-3c1.6-0.4,1.9-0.8,0.8-2.2
		c-2-2.6-3.6-5.5-4.8-8.5c-1.5-3.3-0.9-5.7,1.6-7.2c2.9-1.6,6-0.7,7.9,2.4c1.7,2.7,3.3,5.4,5,8.2c0.4,0.7,0.8,1.7,1.9,0.6
		c4.4-4.4,8.9-8.6,10.3-15.1c0.8-3.8,0.3-7.1-1.9-10.2c-0.5-0.7-1-1.1,0.1-1.8c4.1-2.3,8.3-3.6,12.8-1.9c5.3,2,7.1,6.6,7.8,11.7
		c0.2,1.5,0.6,2.6,1.8,3.7c3.4,3,4.2,7.4,4.4,11.7c0.7,14.9-6.1,25.6-18.7,32.9c-4.8,2.8-9.9,5-14.9,7.5
		c-10.7,5.3-18.6,13.7-26.4,22.3c-6,6.6-12.8,12.2-20.7,16.3c-1.6,0.7-2.8,0.7-4.3,0c-7.2-3.7-13.5-8.6-18.9-14.4
		c-7.2-7.7-14.2-15.7-23.3-21.4c-5-3.1-10.6-5.3-15.8-8c-8.3-4.4-15.8-9.5-19.9-18.4c-3.2-7.3-4-15.1-2-22.9
		c0.4-1.6,0.9-3.3,2.2-4.3c2.4-1.8,2.8-4.3,3.4-7c2.3-10.8,11.1-12.6,19.6-8.2c1.1,0.6,1.5,1,0.6,2.3c-3.4,5.1-2.5,10.3,0.2,15.3
		c2.1,3.7,5.1,6.7,8.2,9.6c0.9,0.9,1.5,0.7,2.1-0.3c1.7-2.8,3.3-5.6,5-8.4c1.5-2.3,3.9-3.4,6.1-3c3.4,0.7,5,3.3,3.8,6.8
		c-1.3,3.4-3.1,6.5-5.1,9.4c-1,1.5-0.8,2,0.9,2.4c4.2,0.9,8.2,2.6,12.1,5.3c-0.4-4.9-0.5-9.3-0.8-13.6c-0.7-10.6,2.5-19.9,7.8-28.7
		c4.5-7.4,9.5-14.5,12.6-22.7c1.4-3.3,2.9-6.8,2.8-10.6C467.8,17.7,468.1,17.7,468.5,17.7z M467.7,111.1c1.1-0.6,1.5-1.6,2-2.4
		c2.9-4.5,6-9,10.6-11.8c2.9-1.9,3.1-4.1,2.4-7c-2.7-10.3-7.2-19.8-13.3-28.5c-1.3-1.8-1.9-1.4-2.9,0.1c-3.4,4.7-6.1,9.7-8.4,15.1
		c-2,4.5-3.9,9-4.9,13.8c-0.6,2.7-0.4,4.8,2.3,6.6c3.9,2.4,6.8,6.1,9.3,9.9C465.7,108.1,466.8,109.6,467.7,111.1z M418.5,108.6
		c12.4,7.8,24.1,16.6,35.4,26.1C447.6,118.5,434,112.3,418.5,108.6z M517.7,108.8c-14.8,0.7-34.2,14.9-35.4,26.2
		C493.4,125.1,505.1,116.5,517.7,108.8z"/>
	<path class="st1" d="M465.9,556.9c-7.5-0.2-16.3-2.6-23.3-9.5c-8.3-8.3-8.2-19.8,0.4-27.8c6-5.5,13.2-8.3,21.2-8.8
		c9.6-0.7,18.6,0.9,26.5,6.9c11.6,8.7,11.7,23,0.3,31.9C484.2,554.9,476.4,556.9,465.9,556.9z"/>
	<path class="st2" d="M675.6,369C675.6,369,675.7,369,675.6,369c-0.6,1.3,0.5,1.7,1.1,2.3c3.2,3.7,6.3,7.5,8.7,11.8
		c0.6,1.1,1.3,2.5,1.6,3.8c1,3.9,0.1,6.5-3.1,8.5c-6.6,4.1-14.1,5.5-21.6,7.1c-0.5,0.1-1-0.1-1.5-0.4c-4.9-3.3-9.6-6.9-13.7-11.3
		c-4.2-4.5-1.9-11.5,1.8-14.4c5-4,10.7-6.2,16.8-7.3c2.7-0.5,5.4-0.7,8.2-1.1l0,0c-0.1,0.4,0.1,0.6,0.5,0.5l0,0
		C674.5,369.1,674.9,369.6,675.6,369z M665.1,396.8c2.8,0.1,5.4-0.4,8.2-1c4.7-1.3,6.2-3.8,4.9-8.5c-1.1-4.6-3.7-8.5-6.3-12.3
		c-0.5-0.7-1-1-2-0.7c-5.3,1.7-10.6,3.6-15.1,7.1c-3.7,2.9-4.1,6.6-0.9,10C657,394.7,660.4,397.2,665.1,396.8z"/>
	<path class="st2" d="M260.6,369.7L260.6,369.7c0.5-0.3,1.1-0.6,1-1.4l0,0c0.4,0.1,0.6-0.1,0.5-0.5l0,0c8.7,0.9,17.1,2.3,24.4,7.9
		c5.7,4.5,6.3,11,1.1,16.2c-3.7,3.8-7.9,6.8-12.2,9.8c-0.7,0.5-1.4,0.5-2.2,0.4c-6.1-1.1-12.1-2.6-17.8-5.1
		c-6.9-3.1-9.1-6.5-4.6-14.7C253.4,377.7,257,373.7,260.6,369.7z M270.5,396.8c4.5,0,7.6-1.4,10.7-4.6c3.9-4,3.6-8-0.8-11.4
		c-4.3-3.2-9.3-5-14.4-6.7c-0.8-0.3-1.5-0.1-2,0.6c-2.6,3.9-5.1,7.9-6.3,12.5c-1.1,4.4,0.3,6.9,4.7,8.2
		C265,396.4,267.9,397,270.5,396.8z"/>
	<path class="st2" d="M310.3,392.7c3.2-1.5,6.5-2.8,9.4-4.9c0.5-0.3,0.9-0.7,1.5-1c4.6-4,4.7-7.9,0.2-11.9c-3-2.7-6.5-4.7-10.1-6.5
		c-1.1-0.5-1.6-0.3-2.3,0.6c-2.5,3.4-5,7-7.2,10.7c-2.3,3.8-2,6.6,1.4,9.5c1.3,1.1,2.6,2.1,3.8,3.3c-4.6-0.7-8.9-2-11.8-5.7
		c-2.5-3-1.9-6.4-0.3-9.7c2.3-5.1,6.1-9.1,9.9-13.1c1.8-1.9,3.3-2.2,5.9-1.4c6.1,2.1,12.1,4.3,17.1,8.6c7.4,6.4,6.3,15.4-2.6,19.8
		C320.8,392.9,314.1,393.9,310.3,392.7z"/>
	<path class="st2" d="M628.5,392.6c2.4-1.7,4.4-3,5.9-4.9c1.7-2.2,2.1-4.4,0.6-6.9c-2.4-4.2-5.2-8-8-11.9c-0.5-0.7-0.9-1-1.9-0.6
		c-4,2-7.9,4.1-11.1,7.3c-3.7,3.8-3.4,7.3,0.5,10.9c2.6,2.4,5.7,4,9,5.3c0.7,0.3,1.5,0.7,2.2,1.3c-7.1,0.3-14.1,0.2-19.3-5.7
		c-3.6-4.1-3.7-9.4-0.2-13.6c3.4-4.3,8.3-6.6,13.2-8.7c1.6-0.7,3.3-0.9,4.8-1.8c3.4-1.8,6-1,8.6,2c3.2,3.8,6.7,7.4,8.8,12
		c2.5,5.5,1.1,9.6-4,12.6C635.1,391.3,631.4,392.4,628.5,392.6z"/>
	<path class="st2" d="M355.3,356.3c-6.6-2.4-11.4-10.8-7.4-18.3c2.6-5,6.8-8.8,11.2-12.3c0.8-0.6,1.5-0.6,2.3,0
		c5.3,3.9,10.2,8,13.9,13.7c1.5,2.3,2.7,4.8,2.9,7.6c0.6,8.5-3.4,12.9-12,13.1c-2.7,0.1-5.4-0.3-8.4-1.1c2.4-0.9,4.5-1.8,6.6-2.7
		c1-0.4,2-1,2.9-1.7c4.2-3,5-6.1,2.5-10.7c-1.9-3.6-4.3-6.9-6.7-10c-0.8-1-1.4-1.3-2.4-0.1c-2.5,2.8-4.7,5.6-6.5,8.9
		c-1.5,2.7-1.1,5.6-0.4,8.6C354.1,352.9,354.8,354.6,355.3,356.3z"/>
	<path class="st2" d="M580.5,356.6c1-3.1,2.1-6,2.3-9c0.2-4.4-2.4-7.4-4.8-10.5c-3.9-5.1-3.9-5.1-7.6,0.1c-1.9,2.6-3.7,5.2-4.8,8.2
		c-1.6,3.9-0.7,6.5,2.7,9c2.9,2.1,6.2,3.2,10.1,4.5c-5.2,1.4-9.7,1.8-14.3,0.3c-5.2-1.8-7.6-7.4-6.1-13.7c0.8-3.3,2.6-6.2,4.7-8.8
		c3.3-4.2,7.4-7.6,11.7-10.8c0.9-0.6,1.6-0.7,2.5,0c3.8,3,7.3,6.3,9.9,10.3C591.9,343.8,589.3,352.5,580.5,356.6z"/>
	<path class="st3" d="M339.6,325.9c2.8-1,5.5-2.1,7.7-4.1c2.1-1.8,2.4-4,1.7-6.5c-1.3-4.1-3.6-7.4-6.2-10.6c-0.9-1-1.5-1-2.3,0.1
		c-3.8,4.5-5.7,9.4-5.5,15.4c0.1,2.2,0,4.4,0,6.7c-5.9-2.6-8.3-9.5-5.4-15.4c3-6.2,8-10.6,13.2-14.9c0.5-0.4,1-0.6,1.6-0.1
		c5.5,5.7,10.9,11.7,11.8,20.3c0.3,3.1-1.1,5.2-3.8,6.8C349.1,325.3,343.7,326.3,339.6,325.9z"/>
	<path class="st2" d="M596.9,326c-4.3,0.3-7.7-0.4-11.1-1.6c-5.2-1.9-7-5.3-5.5-10.8c1.9-6.8,6.2-12,10.9-16.9
		c0.7-0.7,1.4-0.9,2.2-0.2c4.8,4.2,9.5,8.5,12.6,14.1c3.3,6.1,1.3,13-4.8,16.1c-0.3-3.4-0.1-6.9-0.3-10.2c-0.3-4.9-2.9-8.5-5.6-12.1
		c-0.6-0.8-1.1-0.8-1.9,0c-2.6,3.2-5,6.6-6.3,10.6c-1.1,3.7-0.3,6.1,3,8C592,324.3,594,325.2,596.9,326z"/>
	<path class="st2" d="M578.4,283.9c0.6-6.4-1.1-11.8-5.7-16.4c-1.1-1-1.7-1.1-2.9-0.2c-2.5,1.9-4.8,3.9-6.5,6.6
		c-2.1,3.4-1.5,6.8,1.6,9.4c2.3,2,5.2,2.8,8.5,4.1c-4.6,0.9-8.8,1.4-12.9,0.1c-4.5-1.5-6.5-5.2-4.9-9.5c2.5-7.4,7.9-13,13.3-18.4
		c0.7-0.7,1.6-0.4,2.4,0c4.4,2.4,8,5.5,10.5,10C583.9,273.9,582.7,279.5,578.4,283.9L578.4,283.9z"/>
	<path class="st2" d="M357.8,283.8c-5-4.9-5.9-10.9-2.5-16c2.4-3.7,5.6-6.4,9.5-8.5c0.8-0.4,1.7-0.8,2.5,0c5,5.1,9.8,10.2,12.6,17
		c2.5,6.1-0.6,11-7.2,11.5c-3.1,0.2-6.4,0.2-9.5-0.6c0.3-0.7,1-0.6,1.7-0.8c1.5-0.6,3-1.1,4.5-2c5.2-2.9,6.1-7.8,2.2-12.3
		c-0.7-0.9-1.6-1.8-2.5-2.6c-5.2-4.2-3.8-4.1-8,0.9C357.9,274.1,357.1,278.5,357.8,283.8z"/>
	<path class="st2" d="M396,453.8c-0.9-7.8-4-13.6-10.6-17c-2.5-1.4-2.6-2.8-0.6-4.9c1.9-2,4.3-2.4,6.8-1.7c4.7,1.3,8,5.6,8,11
		C399.7,445.4,398.4,449.4,396,453.8z"/>
	<path class="st2" d="M539.8,453c-2.4-4.6-4.1-9.2-3.2-14.4c0.6-4,4.6-7.9,8.6-8.7c2.1-0.3,4.1,0.1,5.7,1.6c2.3,2,2.3,3.9-0.3,5.2
		C544,440.3,541,445.9,539.8,453z"/>
	<path class="st3" d="M556.1,629.4c-9.1-4.3-14.2-4-20.3,4.7c-0.5-4.1,1.6-11.4,4.1-14.3c3.8-4.5,9.5-4.3,12.9,0.5
		C554.7,623.1,555.7,626.1,556.1,629.4z"/>
	<path class="st3" d="M400.4,634c-6.2-9-12.3-8.7-20.7-4.6c1-4.5,2.2-8.7,5.7-11.5c2.7-2.2,6.9-1.8,9.6,0.9c3,3,4,6.9,4.7,10.9
		C400.1,631.2,400.2,632.7,400.4,634z"/>
	<path class="st3" d="M541.6,706.5c0.2,1.3,0.4,2.5,0.6,3.8c0.4,2.2,1.5,3.8,3.8,4.5c1.8,0.5,3.6,1.3,3.4,3.6
		c-0.1,2.2-1.5,3.9-3.4,4.8c-2,0.9-3.7,0.1-5.1-1.4c-3-2.9-3.9-10.1-1.6-13.7C539.8,707.1,540.4,706.5,541.6,706.5z"/>
	<path class="st2" d="M397.8,713.2c0.1,3.1-0.4,5.7-2.2,8c-1.4,1.7-3,2.6-5.2,2c-2.1-0.7-3.3-2.4-3.8-4.5c-0.4-1.8,0.7-3,2.1-3.3
		c3.9-1,5.1-3.9,5.4-7.4c0-0.4-0.2-1.1,0.4-1.4c0.7-0.2,1.4,0.3,1.7,0.9C397.6,709.2,398,711.3,397.8,713.2z"/>
	<path class="st3" d="M533.4,692.9c-1.3,3.1-3.7,5-6.9,5.9c-2.5,0.6-4.8-1.3-5-3.9c-0.2-2.8,0.3-5.6,1.7-8.5
		C525.7,690.3,527.6,694.9,533.4,692.9L533.4,692.9z"/>
	<path class="st2" d="M402.5,692.9c4.7,1.1,6.2,0.5,10.1-6.5c1.8,2.9,2.2,6.1,1.7,9.3c-0.3,2.1-2.6,3.6-4.6,3.1
		C406.2,698,403.9,695.9,402.5,692.9L402.5,692.9z"/>
	<path class="st3" d="M720.7,401.5c0-0.2,0-0.4,0.1-0.6c2.1,0.5,3.2,2.3,4.6,3.8l0,0C723.6,404,722.1,402.7,720.7,401.5z"/>
	<path class="st3" d="M185.7,423c0.1,0.2,0.3,0.4,0.4,0.6c-0.6,1-0.8,2.4-2,3l0,0C184.5,425.3,185,424.2,185.7,423z"/>
	<path class="st3" d="M750.6,424.8c0-0.2,0-0.4,0.1-0.6c0.8,1,1.3,2.3,1.6,3.6l0,0C751.3,427,750.8,426,750.6,424.8z"/>
	<path class="st0" d="M213.9,402.3c-0.4,0.6-1,1.1-1.9,1.3c-0.1-0.1-0.1-0.1-0.2-0.2c0.4-0.6,0.8-1.1,1.6-1.5
		C213.7,402,213.8,402.1,213.9,402.3z"/>
	<path class="st0" d="M752.2,418c1.4-0.1,1.7,0.4,2,1.1C753.4,419.4,753,418.7,752.2,418z"/>
	<path class="st0" d="M295.1,246.7c0.5-0.3,0.8,0,1.1,0.4c-0.1,0.1-0.2,0.1-0.2,0.2C295.7,247.3,295.2,247.1,295.1,246.7
		L295.1,246.7z"/>
	<path class="st0" d="M640.3,246.7c0.2-0.5,0.5-0.6,1-0.5l0,0C641.1,246.6,640.8,247,640.3,246.7L640.3,246.7z"/>
	<path class="st0" d="M211.5,404c-0.2,0.1-0.4,0.3-0.5,0.4c0-0.1,0-0.2,0-0.3C211.2,404.1,211.4,404.1,211.5,404L211.5,404z"/>
	<path class="st0" d="M284.8,417.7c-0.1,0.1-0.2,0.2-0.3,0.2s-0.2-0.1-0.3-0.2c0.1,0,0.1-0.1,0.2-0.1
		C284.5,417.5,284.6,417.6,284.8,417.7z"/>
	<path class="st0" d="M651.6,417.5c0.1,0.1,0.2,0.2,0.3,0.2c-0.1,0-0.3,0.1-0.4,0.1c-0.1,0-0.1-0.1-0.2-0.1
		C651.3,417.6,651.4,417.6,651.6,417.5z"/>
	<path class="st3" d="M184.3,426.7c0,0.4,0.1,0.9-0.5,1l0,0C183.9,427.4,184,427.1,184.3,426.7L184.3,426.7z"/>
	<path class="st3" d="M183.7,427.7c0,0.2,0,0.4-0.1,0.7C183.1,428,183.7,427.9,183.7,427.7L183.7,427.7z"/>
	<path class="st3" d="M752.2,427.7c0.1,0.2,0.2,0.4,0.3,0.5C752,428.3,752.4,427.8,752.2,427.7C752.3,427.7,752.2,427.7,752.2,427.7
		z"/>
	<path class="st0" d="M641.3,246.2c0-0.1,0.1-0.3,0.1-0.4C641.8,246.2,641.4,246.1,641.3,246.2L641.3,246.2z"/>
	<polygon class="st2" points="578.4,283.8 578.3,283.9 578.4,283.9 	"/>
	<path class="st0" d="M639.3,247.9c-0.2,0.3-0.3,0.5-0.6,0.2c0,0,0.2-0.3,0.4-0.5C639.1,247.6,639.2,247.7,639.3,247.9z"/>
	<path class="st0" d="M296.9,247.5c0.1,0.2,0.4,0.4,0.3,0.5c-0.3,0.3-0.5,0.1-0.6-0.2C296.7,247.7,296.8,247.6,296.9,247.5z"/>
	<path class="st0" d="M182.3,419.1c-0.1,0.2-0.2,0.4-0.5,0.2c0.1-0.2,0.2-0.3,0.3-0.5C182.1,418.9,182.2,418.9,182.3,419.1z"/>
	<path class="st0" d="M639.8,247.3c-0.2,0.2-0.3,0.3-0.5,0.5c-0.1-0.1-0.2-0.2-0.3-0.3c0.2-0.1,0.4-0.3,0.6-0.4
		C639.7,247.2,639.8,247.3,639.8,247.3z"/>
	<path class="st0" d="M296.3,247.1c0.2,0.1,0.4,0.2,0.7,0.3c-0.1,0.1-0.2,0.2-0.3,0.3c-0.2-0.1-0.4-0.3-0.6-0.4
		C296.1,247.3,296.2,247.2,296.3,247.1z"/>
	<path class="st0" d="M640.3,246.7c0.3,0.4-0.1,0.5-0.3,0.7c-0.1-0.1-0.1-0.1-0.2-0.2C639.8,247,640.1,246.8,640.3,246.7
		L640.3,246.7z"/>
	<path class="st0" d="M211.6,404.1c-0.3-0.4,0-0.5,0.3-0.7c0.1,0.1,0.1,0.1,0.2,0.2C211.9,403.7,211.7,403.9,211.6,404.1
		C211.5,404,211.6,404.1,211.6,404.1z"/>
	<polygon class="st0" points="180.8,419.8 181,419.7 181,419.9 	"/>
	<path class="st0" d="M295.1,246.7c-0.1-0.1-0.2-0.2-0.3-0.3c0.1,0,0.2,0,0.3-0.1C295.1,246.5,295.1,246.6,295.1,246.7L295.1,246.7z
		"/>
	<path class="st2" d="M402.5,692.9c-0.1-0.1-0.2-0.1-0.3-0.2c0.1,0,0.1,0,0.2,0C402.4,692.8,402.4,692.9,402.5,692.9L402.5,692.9z"
		/>
	<path class="st3" d="M533.4,692.9c0-0.1,0-0.1,0.1-0.2h0.1C533.7,692.8,533.6,692.8,533.4,692.9L533.4,692.9z"/>
	<path class="st3" d="M725.3,404.5c0.1,0.1,0.2,0.1,0.3,0.2C725.3,404.9,725.3,404.7,725.3,404.5
		C725.4,404.5,725.3,404.5,725.3,404.5z"/>
	<path class="st0" d="M754.9,419.9l-0.1-0.1c0.1,0,0.1-0.1,0.2-0.1l0.1,0.1C755.1,419.9,755,419.9,754.9,419.9z"/>
	<path class="st0" d="M430.8,300.3c2.8-2.9,5.7-5.7,8.6-8.7c2.1-2.1,4-4.4,5.5-7.3c-2.3,0-4.2,0.1-6.2,0c-2.9-0.1-5.5-1-7.6-3.1
		c-2.5-2.5-2.5-4.2,0-6.8c0.5-0.5,1.1-0.9,1.9-1.6c-4.8-1.4-7-4-6.6-7.5c0.5-3.8,4-6.4,7.5-5.6c3.8,0.8,6.4,4.7,4.8,8.3
		c-1.5,3.3,0.2,5.3,2.2,7.1c5.7,5.5,6.8,5.2,8.7-2.4c1-4.4,1.4-8.8,1.9-13.3c0.2-1.6-0.4-2.3-1.9-3.1c-7.4-3.9-13.8-8.9-18.7-15.8
		c-3.6-4.9-4.6-10-1.5-15.6c1.3-2.2,2.3-4.6,3.6-6.9c0.6-1.1,0.9-1.9-0.4-2.9c-2.6-2-3.1-5.6-1.5-8.3c1.8-2.7,4.9-3.9,7.8-2.3
		c1.5,0.7,2.1,0.5,2.9-0.8c7.7-11.8,15.9-23.2,24.4-34.5c1.9-2.5,1.9-2.5,3.8,0.1c8.3,11.1,16.3,22.3,23.9,33.9
		c0.9,1.4,1.6,2.3,3.6,1.4c3-1.5,6.2-0.1,7.7,2.6c1.6,2.7,1,6.3-1.6,8c-1.7,1.1-1.1,1.8-0.4,3c1.3,2.3,2.3,4.6,3.6,6.9
		c3.1,5.6,1.9,10.8-1.7,15.8c-4.8,6.8-11.3,11.7-18.5,15.6c-1.6,0.8-2,1.8-1.9,3.3c0.6,5.9,1.3,11.8,3,17.5c0.5,1.8,1.3,2.2,2.8,1
		c1.1-0.8,2.5-1.6,3.7-2.4c3.1-2.3,3.9-4.5,2.9-8.3c-0.8-3.4,1-6.9,4.5-7.9c3-0.9,6.6,0.9,7.7,4c1.3,3.4-0.3,6.9-3.8,8.2
		c-0.7,0.3-1.5,0.4-2.1,0.7c0,0.5,0.4,0.7,0.7,0.9c3.8,3.6,3.4,6.2-1,8.9c-3,1.9-6.3,2-9.7,1.8c-0.6,0-1.5-0.4-1.9,0.2
		c-0.5,0.7,0.4,1.3,0.7,1.8c3.8,5.4,8.6,9.7,13.5,14l0,0c-3.9-0.7-6.9-3.1-10.1-5.2c-6.1-3.9-11.5-8.4-14.1-15.5
		c-2.1-5.6-3.7-11.4-4.6-17.3c-0.2-1.1-0.4-1.9-1.9-1.5c-4.6,1.1-9.2,1.1-13.8,0c-1.6-0.4-1.7,0.2-2,1.5c-0.6,3.2-1.5,6.5-2.1,9.8
		C454.1,286.9,443.6,294.7,430.8,300.3L430.8,300.3z M467.9,242.1L467.9,242.1c0.8-0.1,1.7,0,2.6-0.1c5.9-0.4,9.9-3.3,10.8-8.2
		c0.4-2.5,0.3-5.1-0.2-7.6c-2-9.9-6.9-18.6-12.1-27.1c-0.7-1.3-1.3-1-2,0.1c-5.3,8.7-10.6,17.6-12.2,27.8
		c-1.3,7.5,0.1,13.3,9.5,14.8C465.4,242.1,466.7,242,467.9,242.1z"/>
	<path class="st3" d="M299.1,123c3.4,0,6.4,2.9,6.3,6.4c-0.1,3.3-2.9,6.3-6.2,6.3c-3.4,0.1-6.6-3-6.4-6.6
		C292.8,125.7,295.8,123,299.1,123z"/>
	<path class="st3" d="M636.9,123c3.3,0,6.3,2.9,6.2,6.3c-0.1,3.6-2.9,6.5-6.4,6.4c-3.3-0.1-6.3-3-6.3-6.4
		C630.5,125.9,633.5,123,636.9,123z"/>
	<path class="st2" d="M580,108c0-3.6,2.7-6.3,6.2-6.3c3.7,0,6.3,2.8,6.3,6.5c0,3.4-2.8,6.3-6.2,6.3C582.5,114.5,579.9,111.8,580,108
		z"/>
	<path class="st2" d="M356.1,108.1c0,3.6-2.8,6.4-6.4,6.4c-3.2,0-6.1-2.9-6.1-6.4c0-3.4,2.7-6.3,6.1-6.4
		C353.3,101.7,356.1,104.6,356.1,108.1z"/>
	<path class="st2" d="M329.3,119.6c0.1,3.6-2.5,6.4-6,6.4c-3.7,0.1-6.5-2.5-6.5-6.2c0-3.6,2.5-6.3,6.1-6.4
		C326.6,113.4,329.2,115.8,329.3,119.6z"/>
	<path class="st2" d="M420,140.9c-3.4,0-6.2-2.8-6.2-6.3c0-3.7,2.7-6.3,6.5-6.2c3.4,0.1,6.2,2.8,6.2,6.3
		C426.4,138.3,423.7,141,420,140.9z"/>
	<path class="st2" d="M516,128.5c3.4,0,6.2,2.7,6.1,6.3c0,3.4-3,6.3-6.5,6.2c-3.3-0.1-6.1-2.9-6.1-6.4
		C509.5,131,512.2,128.5,516,128.5z"/>
	<path class="st2" d="M612.7,113.7c3.7,0,6,2.5,6,6.2c0,3.8-2.6,6.3-6.4,6.2c-3.4-0.1-6.1-2.7-6.1-6.3
		C606.3,116.1,608.8,113.5,612.7,113.7z"/>
	<path class="st0" d="M234.5,230.6c-0.1,0-0.1,0-0.2-0.1c0.1-0.1,0.1-0.1,0.2-0.2c0,0,0.1,0.1,0.2,0.1
		C234.6,230.5,234.5,230.5,234.5,230.6z"/>
	<path class="st0" d="M429.8,300.8c0.2-0.4,0.5-0.6,1-0.5l0,0C430.6,300.8,430.2,300.7,429.8,300.8L429.8,300.8z"/>
	<path class="st0" d="M505.6,300.3c0.2,0.2,0.3,0.3,0.5,0.5l0,0C505.9,300.7,505.5,300.7,505.6,300.3L505.6,300.3z"/>
	<path class="st4" d="M205.9,397.6c-0.3,0.2-0.6,0.4-0.9,0.6c-0.1,0-0.5,0-0.2-0.4c0.2-0.2,0.4-0.4,0.7-0.6S205.8,397.3,205.9,397.6
		z"/>
	<path class="st4" d="M261.7,368.5c0,0.7-0.6,0.9-1,1.4C260.1,368.7,260.7,368.4,261.7,368.5z"/>
	<path class="st4" d="M730.7,397.4c0.1,0.1,0.2,0.2,0.3,0.3c0,0.1-0.1,0.2-0.2,0.4c-0.1-0.1-0.3-0.3-0.4-0.4
		C730.5,397.6,730.6,397.5,730.7,397.4z"/>
	<path class="st4" d="M675.6,369c-0.7,0.6-1,0.1-1.4-0.5C674.9,368.2,675.3,368.6,675.6,369z"/>
	<path class="st4" d="M262.1,367.9c0.1,0.5-0.1,0.6-0.5,0.5C261.5,367.9,261.8,367.9,262.1,367.9z"/>
	<path class="st4" d="M674.3,368.5c-0.4,0.1-0.6-0.1-0.5-0.5C674.1,367.9,674.4,368,674.3,368.5z"/>
	<path class="st4" d="M754.7,302.9c-0.1-0.1-0.2-0.3-0.2-0.4c0.2,0.1,0.3,0.1,0.5,0.2C754.9,302.8,754.8,302.9,754.7,302.9z"/>
	<path class="st4" d="M181,302.7c0.2-0.1,0.3-0.1,0.5-0.2c-0.1,0.2-0.1,0.3-0.2,0.5C181.1,302.9,181.1,302.8,181,302.7z"/>
	<path class="st4" d="M747.6,415.4c-0.1,0-0.2,0-0.3-0.1C747.5,414.9,747.5,415.3,747.6,415.4L747.6,415.4z"/>
	<path class="st4" d="M619,405.7c-0.1-0.1-0.3-0.3-0.3-0.3c0.2-0.3,0.3-0.1,0.4,0.1C619.2,405.6,619,405.7,619,405.7z"/>
	<path class="st2" d="M305.7,214c5.2-3.9,10.1-7.6,15.2-11.2c6.9-4.8,12.8-10.7,18.3-16.9c3.1-3.6,6.5-6.9,10.3-9.6
		c0.9-0.6,1.4-1.3,1.4-2.5c0.3-8.7,6.9-15.4,15.2-15.4c8.4-0.1,15.2,6.5,15.6,15.1c0.4,7.4-5.3,14.6-12.8,15.8
		c-1.4,0.2-2.3,0.7-3.3,1.7c-8.3,7.6-16.8,14.9-26.8,20.4c-10.1,5.5-20.7,6.9-31.8,3.3C306.7,214.5,306.5,214.4,305.7,214z
		 M319,210.6c4.8,0.1,8.8-0.8,12.4-2.4c10.8-4.6,19.4-12.3,28.6-19.3c0.9-0.7,0.6-1.3-0.1-1.9c-1.9-1.7-3.9-3.3-5.7-5.2
		c-0.8-0.8-1.4-0.7-2.1-0.1c-2.4,2.1-4.8,4.1-7.1,6.3c-5.3,5-9.8,11.1-15.9,15.4C325.9,205.7,322.7,208,319,210.6z M366.1,184.3
		c5.6,0,10.3-4.5,10.5-10.2c0.1-5.4-4.8-10.3-10.3-10.5c-5.6-0.1-10.3,4.6-10.3,10.3C356,179.8,360.4,184.3,366.1,184.3z"/>
	<path class="st2" d="M630.3,214.1c-5.7,2.2-11.2,2.9-16.7,2.4c-12-1-21.4-7.6-30.6-14.6c-4-3.1-7.8-6.4-11.5-9.8
		c-1.3-1.1-2.4-2.4-4.5-2.7c-5.9-0.7-11-5.9-12.2-11.5c-1.5-6.5,1-12.9,6.3-16.5c5.1-3.6,11.8-3.8,16.9-0.3c4.4,2.9,6.9,7.1,7,12.4
		c0,1.5,0.4,2.3,1.7,3.1c5.7,3.9,10,9.3,14.6,14.4c6.5,7.1,14.4,12.3,22.1,18.1C625.5,210.6,627.7,212.2,630.3,214.1z M617,210.6
		c-1.3-0.8-1.9-1.4-2.6-1.9c-6-4-11.8-8-16.5-13.5c-4.2-4.7-8.6-9.1-13.5-13.1c-1.1-0.9-1.9-1.1-3,0c-1.7,1.8-3.4,3.3-5.3,4.9
		c-0.9,0.8-0.6,1.5,0.2,2.1c8,6.3,15.9,12.9,25,17.7C605.8,209.3,610.9,210.9,617,210.6z M569.9,184.3c5.6,0,10-4.5,10.1-10.2
		c0-5.7-4.6-10.5-10.1-10.5c-5.5,0-10.3,4.7-10.5,10.3C559.4,179.7,564,184.4,569.9,184.3z"/>
	<path class="st2" d="M474.2,300.9c0,3.6-2.5,6.2-6.1,6.2c-3.9,0-6.4-2.4-6.4-6.4c0-3.7,2.7-6.4,6.2-6.4
		C471.6,294.3,474.2,297.1,474.2,300.9z"/>
	<path class="st2" d="M366.3,168.9c2.7,0.1,4.9,2.5,4.8,5.3s-2.4,5-5.2,4.8c-2.6-0.1-4.8-2.4-4.7-5.1
		C361.3,171.1,363.6,168.8,366.3,168.9z"/>
	<path class="st3" d="M569.7,179.1c-2.7,0-4.9-2.4-4.9-5.2c0.1-2.7,2.2-4.9,4.9-5s5,2.3,5,5.1C574.7,176.9,572.4,179.1,569.7,179.1z
		"/>
</g>
</svg>
