<?xml version="1.0" encoding="utf-8"?>
<!-- Generator: Adobe Illustrator 19.0.0, SVG Export Plug-In . SVG Version: 6.00 Build 0)  -->
<svg version="1.1" id="Layer_1" xmlns="http://www.w3.org/2000/svg" xmlns:xlink="http://www.w3.org/1999/xlink" x="0px" y="0px"
	 viewBox="0 0 773.9 758.4" style="enable-background:new 0 0 773.9 758.4;" xml:space="preserve">
<style type="text/css">
	.st0{fill:#867871;}
	.st1{fill:#867771;}
	.st2{fill:#887A74;}
	.st3{fill:#887B74;}
	.st4{fill:#FEFEFE;}
</style>
<g>
	<path class="st0" d="M16.8,419.7c1.3,0.1,2,1.3,3,2c4.3,3.4,9.2,3.5,14.3,2.7c1.5-0.2,1.8-0.9,1.2-2.3c-2-4.8-3.3-9.8-3-15.1
		c0.1-2.3,0.2-4.6,0.4-6.9c0.1-1.1-0.1-1.6-1.4-1.7c-1.4-0.1-2.7-0.6-3.9-1.5c-1.3-1-1.9-2.3-1.6-3.9c0.3-1.7,1.4-2.6,3-2.9
		c1.6-0.3,3.2-0.7,4.9-0.3c0.9,0.2,1.3,0.2,1.4-0.9c0.3-5.9,2.7-11.3,4.7-16.8c0.5-1.4,0.4-2.1-1-2.8c-1.5-0.7-2.8-1.6-4-2.9
		c-1-1.1-1.7-2.3-1.2-3.8c0.5-1.6,1.7-2.5,3.4-2.9c1.6-0.3,3.1-0.2,4.6,0.4c1.4,0.6,2,0.1,2.6-1.2c9.6-19.4,21.2-37.4,35.3-53.9
		c10.3-12.1,22.3-22.5,35-32.1c1.8-1.4,3.7-2.7,6-4.5c-1.4,0-2.3,0-3.2,0c-3.5,0.1-6.9-0.1-10.3-0.9c-10.8-2.6-13.4-8.4-12.9-18.3
		c0.2-3.4,0.5-6.9-0.1-10.3c-0.6-2.8-1.5-3.4-4.1-2.3c-1.3,0.5-1.8,0.2-2.1-1c-1-3.9,0.3-7.2,2.9-9.9c2.4-2.4,5.8-2.8,9.1-1.1
		c4.7,2.3,7.2,6,7.4,11.3c0.1,3.1-0.3,6.1-0.8,9.1c-0.7,4,0.6,7,4.1,9.2c5.1,3.3,11,3.9,16.7,5.4c4.1,1.1,7.8,0.4,11.5-1.5
		c3.4-1.7,6.9-2.9,10.5-4.1c3.6-1.1,7.2-1.9,11.4-2.8c-4-2.7-7.5-5.1-11-7.6c-6.7-4.7-12.8-10-18.7-15.7
		c-8.7-8.4-12.6-19.1-14.8-30.5c-2.3-11.8-2.3-23.5,1.7-35c1.9-5.5,4.7-10.5,8.7-14.8c5.3-5.7,12.2-7.4,19.7-7
		c1.7,0.1,2.4-0.4,2.9-2.1c2.2-7.6,5.4-14.7,11.5-20c8.1-7,20.5-4.9,26.7,0.4c5.1,4.4,4.9,10.2,3.3,16.1c-0.3,1.1-0.7,2.2-1.1,3.4
		c1.9,0.1,3.8,0,5.5,0.3c6.1,1.2,9.7,5.7,10.6,12.8c1.5,10.8-3.8,18.4-11.7,24.7c-1.8,1.4-3.8,2.6-5.8,3.9c0.5,0.9,1.5,0.8,2.3,1.1
		c2,0.7,4,1.7,5.5,3.2c4,3.9,2.7,10.2-2.7,12.9c-1.2,0.6-2.5,1.2-3.9,1.6c-1.8,0.5-3.7,0.8-5.8,1.2c1-1.8,2.7-2.5,3.6-3.9
		c2.4-3.7,1.6-6.1-2.5-7.6c-2.3-0.9-4.7-0.8-7-1.2c-1-0.2-1.7,0.5-2.4,1.1c-4.9,3.4-9.3,7.2-13.8,11.5c3.4,0.4,6.6,0.8,9.2,3
		c2.6,2.2,3.9,5.1,3.8,8.4c-0.1,3.5-5.3,7.3-10.5,7.8c1.3-1.6,2.4-3.3,2.6-5.2c0.2-1.6,0-3.1-1.4-3.9c-2.7-1.5-5.6-1.6-8.6-1.3
		c-0.9,0.1-1.1,0.8-1.4,1.5c-2.2,5.4-3.1,11-2.2,16.7c1,6.1,5.4,9.8,10.4,12.7c6.8,3.9,14.5,5.6,22,7.8c2.3,0.7,4.8,2.3,6.8,1.4
		c2.1-1,2.5-4,3.6-6.2c12.7-25.5,24.5-51.4,38.4-76.3c9.1-16.2,21.8-29.3,39.4-36.5c12.3-5,25.1-5.9,37.9-2.1
		c9.3,2.7,15.7,8.8,17.5,18.7c0.3,1.4,0.9,1.7,2.3,1.9c11.5,1.7,22.2,5.1,30.8,13.5c0.5,0.5,1,0.9,1.4,1.3c0.1,0.1,0.1,0.3,0.2,0.6
		c-7.3,1.7-14.3,3.9-21,7.2c-8,3.9-15.6,8.5-20.8,16.1c-3.7,5.4-5.5,11.7-6.9,18c-1.7,8.2-2.2,16.4-2.2,24.7c0,2.1,0.7,3.5,2.8,4.6
		c7.8,4,14.8,9.1,20.7,15.7c8.8,9.8,12.8,21.4,12.9,34.5c0,0.8-0.8,2.3,1,2.4l0,0c-0.3,0.8,0.3,1.2,0.8,1.6c1.8,1.4,3.6,2.8,5.4,4.3
		c7.6,6.2,15,12.5,19.3,21.7c2.2,4.8,4.5,9.5,6.4,14.4c1.5,3.8,2.9,7.5,4.5,11.7c2.3-5.8,4.3-11.3,6.6-16.6c4-9.3,8.5-18.3,16.5-25
		c4-3.4,8-6.8,12.1-10c0.6-0.5,1.6-0.7,1.3-1.8l0,0c2-0.2,1-1.7,1-2.6c0.2-13.1,4.3-24.6,13.1-34.4c6-6.6,13.1-11.7,20.9-15.8
		c1.5-0.8,2.3-1.6,2.3-3.3c0-12.5-0.9-24.9-5.4-36.8c-3.4-9-10.1-14.9-18.2-19.7c-8-4.7-16.6-7.9-25.5-10.2
		c-0.5-0.1-1.3,0.1-1.5-0.5c-0.3-0.8,0.5-1.1,1-1.5c8.7-8.6,19.7-12.1,31.4-13.8c1-0.1,1.7-0.3,1.9-1.5c2.1-11.7,10-17.8,20.9-20.1
		c16-3.3,31.2-0.6,45,8.4c13.8,9,24.1,21.2,31.6,35.8c13,25,25.2,50.3,37.6,75.6c1.1,2.2,2.2,2.7,4.5,2c7.7-2.3,15.5-4.1,22.9-7.3
		c2.9-1.3,5.5-3,7.9-5c5.9-4.8,6.6-11.2,5.6-18.1c-0.4-2.6-1.1-5.1-2-7.6c-0.6-1.5-1.6-2-3-1.9c-1.1,0.1-2.3,0.1-3.4,0.3
		c-2,0.3-4.1,0.5-4.9,2.7c-0.8,2.4,0,4.5,1.5,6.4c0.4,0.5,1,0.8,1.8,1.5c-3.5-0.2-8.2-2.6-10-4.8c-2.4-2.9-1.7-7.9,1.6-11.1
		c2.7-2.6,6.1-3.3,9.9-3.6c-4.7-4.6-9.6-8.7-14.9-12.3c-2-1.4-10.2,0.9-11.6,2.9c-0.9,1.3-0.7,2.6-0.1,4c0.8,2.1,2.6,3.5,4.4,5
		c-4.4,0.3-10-1.8-12.5-4.7c-3.2-3.6-2.7-8.5,1.1-11.4c2-1.5,4.4-2.2,7-3.4c-3.3-2.1-6.3-4.1-8.9-6.5c-5.1-4.8-8.7-10.3-9-17.5
		c-0.2-5.4,0.7-10.7,4.9-14.7c3.2-3.1,7.2-3.3,11.5-3c-0.8-2.9-1.8-5.5-2-8.4c-0.5-6.2,2.1-10.9,7.7-13.6c12-5.7,23-2,30,10.3
		c2.1,3.7,3.8,7.7,4.8,11.9c0.4,1.8,1.3,1.9,2.8,1.8c7.2-0.4,13.9,1.1,19,6.3c4.8,4.8,7.9,10.7,9.9,17.1c4.4,13.9,2.8,27.6-0.7,41.5
		c-3.2,12.4-10.9,21.3-20.2,29.3c-6.3,5.4-13,10.3-20,14.7c-0.6,0.4-1.3,0.7-1.7,1.5c0.7,0.9,1.8,0.6,2.7,0.8
		c7.5,1.6,14.6,4.3,21.6,7.5c1.8,0.8,3.4,1.1,5.4,0.7c6.3-1.3,12.8-2,18.6-5.2c4.9-2.7,6.1-5.1,5.2-10.7c-0.5-3-0.8-6-0.6-9.1
		c0.3-5.2,4-9.7,9-11.2c3.2-0.9,5.9-0.1,8,2.3c2.4,2.7,3.5,5.9,2.3,9.6c-0.4,1.2-0.9,1.2-2,0.8c-2.6-1.1-3.5-0.5-4.1,2.3
		c-0.7,3.3-0.4,6.5-0.2,9.8c0.2,3.1,0,6.1-0.7,9c-0.9,3.4-2.9,5.8-6,7.5c-5.5,3-11.4,3.4-17.4,3.2c-0.6,0-1.1,0-2.2,0
		c2.6,2,4.8,3.7,7.1,5.4c29,21.2,50.3,48.8,66.9,80.4c0.3,0.6,0.7,1.1,0.9,1.8c1.1,3.4,2.7,5.1,6.7,3.7c2-0.7,4.3,0.4,5.3,2.6
		c0.9,2.2-0.7,3.6-2.1,5c-1.3,1.3-4,1.4-4.2,3.4c-0.1,1.7,1.1,3.6,1.7,5.3c1.4,4.1,3,8.2,3.2,12.6c0.1,1,0.5,1.2,1.4,1.1
		c1.6-0.3,3.1-0.3,4.6,0.1c1.8,0.5,3,1.4,3.2,3.3c0.2,1.8-0.7,3.1-2.3,4.1c-0.4,0.3-0.9,0.6-1.3,0.6c-3.9-0.1-3.5,2.6-3.1,4.9
		c0.9,6.8-0.1,13.2-2.8,19.5c-0.9,2.1,0.7,2,1.8,2.2c5.7,0.8,11,0.1,15.4-4.1c0.4-0.4,0.7-1,1.4-0.8c0,1,0,2,0,3
		c-3,7.7-9.2,11.5-16.6,14.1c-9.7,3.4-19.8,5.3-29.6,8c-2.2,0.6-4.4,1.5-6.3,2.7c-4.9,3-6.6,9.7-3.8,14.7c1.4,2.5,4,3.8,6.8,3.4
		c2.3-0.3,3.2-1.3,3.8-3.8c-0.2,0-0.3-0.2-0.5-0.1c-1.7,0.4-3.5,1.3-4.7-0.6c-1.1-1.9-0.8-4,0.5-5.8c2.3-3.4,7.7-5.5,11.3-4.4
		c2.7,0.8,5.2,5.1,5.5,9c0.5,7.4-3.3,12.2-9.4,15.4c-6.9,3.6-14.3,3.9-21.5,1.1c-7.8-3-10.2-10.1-12-17.5
		c-1.8-7.2,0.8-13.3,5.2-18.7c1.6-1.9,0.9-2.6-0.6-3.7c-6.2-5-11.9-10.4-16-17.2c-4.8-7.9-6.1-16.4-2.3-25.1
		c0.5-1.1,0.1-1.3-0.8-1.7c-7.4-2.8-8.7-12.3-5.1-17.9c1.6-2.5,3.7-4.6,6.6-6.2c-0.2,2.3-0.3,4.3-0.5,6.4c-0.4,4.1,1.4,6.9,4.9,8.9
		c1.2,0.7,2.2,0.7,3.4-0.1c4.6-3.2,8.2-7.3,10.9-12.2c0.8-1.4,0.1-1.6-0.9-2c-4.4-2-6.4-5.2-6-9.5c0.6-6.1,4-11.1,8.4-12.2
		c0.2-0.1,0.5,0,1,0.1c-0.5,1.7-1.1,3.3-1.5,4.9c-0.7,3-0.3,5.7,2.2,7.8c1,0.8,1.8,0.9,2.4-0.6c8.5-20,5.6-41.1-12.2-56.3
		c-5.9-5-11.8-9.9-18.1-14.4c-0.2-0.1-0.3-0.1-0.5-0.2c0.1,0.1,0.2,0.3,0.2,0.4c2.7,5.4,5.4,10.7,6.6,16.6c1.1,5.2,1.4,10.4,0,15.6
		c-1.2,4.3-4,6.7-8.4,7.1c-1.9,0.1-1.7,0.7-1.3,2.1c0.8,2.4,2.3,4.1,4.3,5.5c3,2.1,6.4,3.3,9.9,4.5c-1,1.1-2.2,1-3.2,1.1
		c-6.3,0.6-12.6,0.3-18.6-2.1c-7.7-3.1-11.2-8.9-11.4-17c-0.2-7.9,1.8-14.8,9-19.3c0.8-0.5,0.8-1.1,0.8-1.9
		c0.4-9.2-3.1-17.1-8.1-24.6c-0.4-0.6-1-1-1.7-1.3c-10.3-4.4-20.7-8.5-31.9-9.9c-5.1-0.6-10.2-0.3-15.2,0.5
		c-1.9,0.3-1.9,0.9-1.1,2.4c5.8,10.8,11.4,21.6,17.1,32.4c10.8,20.4,22.4,40.4,31.2,61.8c3.7,9,7.7,17.7,11.5,26.7
		c1,2.3,2.3,4.1,4.2,5.6c1.5,1.2,2.8,2.5,4.6,4.2c-2.5-0.3-3.6-2-5.3-2.4c-0.1-0.1,0-0.5-0.3-0.1c0.1,0,0.2,0,0.3,0.1
		c-0.1,2.2,1.5,3.9,2,5.9c0.2,0.9,0.6,1.7,0.9,2.5c0,0.2,0,0.4-0.1,0.6c-2.6-4-5.2-8-7.8-11.9c-0.4-0.7-0.9-1.3-1.7-1.8
		c-16.3-11.2-31.2-24.3-46.5-36.9c-15.2-12.5-30.2-25.3-44.7-38.8c-9-8.4-17.8-17-23.5-28.3c-3.9-7.8-6.4-15.8-4.7-24.7
		c1.3-6.6,5-11.9,9.5-16.7c3.5-3.7,7.3-7,11.9-10.1c-0.1,1.4-1,1.8-1.5,2.3c-5.7,5.6-10.5,11.8-12.4,19.8c-2.6,10.2,0,19.6,4.7,28.7
		c4.4,8.6,11,15.5,17.9,22.1c21,20,43,38.9,64.9,58c3.3,2.9,6.7,5.9,10,8.7c0.9,0.8,1.7,1.8,3.1,2.2c0.2-1.5-0.9-2-1.6-2.8
		c-10.2-11.4-21.8-21.2-33.2-31.2c-12.7-11.1-26.1-21.6-38.1-33.5c-7.5-7.4-13.8-15.8-19.5-24.7c-7.3-11.5-7.4-23-1.4-35
		c4-8.1,9.9-14.4,17.2-19.5c0.7-0.5,1.5-0.8,1.9-1.9c-3.2-0.2-6.1-0.6-9.2,1.3c-6.9,4.3-13.9,8.4-19.6,14.4
		c-5.6,5.8-10.3,12.1-11.7,20.4c-1.1,6.2,0.5,11.9,3,17.4c5,10.9,12.6,19.9,20.8,28.5c11.7,12.3,25.2,22.3,38.6,32.5
		c14.9,11.4,28.8,23.9,42.9,36.3c0.8,0.7,1.4,1.6,2.1,2.4c0,0.2,0,0.4-0.1,0.6c-6.2-3.9-12-8.3-17.9-12.6
		c-8.4-6.1-16.8-12.3-25.2-18.5c0,0,0,0,0,0c-0.4-0.3-0.7-0.7-1.3-0.5l0,0c0.1-0.4-0.2-0.5-0.5-0.5l0,0c-2.6-2.9-5.9-4.9-8.9-7.2
		c-15.9-12.7-31.1-26.1-44.2-41.8c-5.9-7-11-14.5-14.8-22.9c-5.1-11.2-3.3-21.3,4.4-30.7c6.1-7.5,13.3-13.3,21.7-17.9
		c0.8-0.4,1.8-0.6,2.2-1.3c-6.5,0-13.1-0.3-19.7,0.1c-9.6,0.5-19.1,1.8-28.5,3.6c-17.4,3.3-30.7,12.8-41.1,26.7
		c-5.8,7.7-9.9,16.3-11.5,25.8c-1.4,8-1.1,15.9,1.3,23.7c1.9,6.1,6.3,10.7,10.6,15.2c11.6,11.8,25,21.6,38.5,31.1
		c21.5,15,43.8,28.7,66.5,41.8c0.5,0.3,1.2,0.3,1.3,1.5c-3.7-1.4-7.2-2.6-10.6-4c-5.9-2.4-11.9-4.8-17.8-7.2
		c-0.5-0.2-1.1-0.3-1.6-0.4c-0.1-0.2-0.2-0.4-0.4-0.1c0,0,0.2,0.2,0.3,0.3c2.1,4,4.5,7.8,6.5,11.8c7.5,15.5,12.9,31.7,18.1,48.1
		c0.6,1.9,1.5,3,3.4,3.7c3.6,1.3,7.1,2.9,10.7,4.5c1.4,0.6,2.1,0.7,1.9-1.2c-1.8-14.3-3.5-28.7-5.2-43c-0.4-3-0.7-6-1.2-9
		c-0.3-2.1,0.7-1.6,1.9-1.1c7.9,3.2,16.1,4.5,24.6,4c9.9-0.6,18.1-4.8,25.3-11.3c3.4-3,6.2-6.5,9.1-10.5c2.3,9.5,4.5,18.5,6.6,27.5
		c7.7,32.2,15.4,64.4,23,96.7c5.1,21.6,10.5,43.2,14.8,65c3,15.5,5.7,31.1,8.2,46.7c2.4,15.1,4.8,30.3,7.3,45.4
		c0.5,3.1-0.1,5.1-2.7,7.1c-10.9,8.4-23.2,13.5-36.6,16.1c-12,2.3-24.1,3.1-36.3,2.5c-14.3-0.7-28.2-3.4-40.7-10.9
		c-5.6-3.3-5.7-3.3-4.4-9.5c2.6-12.6,4.8-25.3,6.7-38c2-13.3,3.5-26.7,4.7-40.1c1.1-12.6,1.8-25.3,1.7-37.9
		c-0.1-15.9-0.8-31.7-2.2-47.5c-1.1-12.4-2.1-24.7-3.1-37.1c-0.2-2.7-0.6-5.5-1-8.8c-3,4.8-5.9,9.1-8.5,13.5
		c-8.3,14.1-20.2,24.7-33.2,34.4c-4.5,3.4-9,6.8-13.7,10.5c3.5,1.8,6.6,3.5,9.6,5.4c6.6,4.1,11.5,9.7,14.9,16.7
		c0.9,1.9,1.7,3.9,1.8,6.1c0.2,5.1-2.6,7.8-7.8,7.3c-3.3-0.3-6.4-1.4-9.4-2.7c-6.3-2.8-12-6.4-18.1-10.7c5.1,0.6,9.6,1,14.1,1.6
		c2.3,0.3,4.6,0.3,6.9,0.3c4-0.1,5.4-2.5,3.4-5.9c-4-6.8-10.1-10.7-17.8-11.8c-10.4-1.4-20.7-0.4-31.4,1.6c0.8,0.5,1.3,0.8,1.7,1.1
		c3.6,2.7,3.9,6.3,0.8,9.4c-2.8,2.7-6,4.8-9.4,6.7c-1,0.5-1.7,0.5-2.4-0.4c-0.3-0.4-0.7-0.7-1-1.1c-4.8-5.9-4.7-8.2,0.4-13.8
		c0.3-0.3,0.7-0.5,0.5-1.2c-10.9,2.4-22.6,2.8-29,14.4c-0.1,0-0.2-0.1-0.2-0.1c-2.4-2.7-2.9-2.6-4.9,0.7c-1.7,2.8-1.7,5.8-1.6,8.8
		c0,0.9,0,1.8,0,2.9c-1.7-0.3-2.4-1.7-3.2-2.8c-4.6-6.9-3.4-15.5,3-22.5c5.7-6.3,13.3-8.8,21.3-10.5c8.5-1.8,17.1-2.8,25.8-3.6
		c6.1-0.6,11.6-3.4,17.1-6.1c9.5-4.7,18.2-10.6,25.9-17.8c7.2-6.8,12-15.4,16.4-24.1c2.6-5.2,4.9-10.6,7-16c0.5-1.3,0.8-2.5,0.4-3.8
		c-6.5-22.2-14.7-43.6-28.9-62.2c-2.8-3.6-7.1-4.1-10.9-6.7c0.8,7-0.1,13.4-1.6,19.8c-1.3,5.2-3.9,9.4-8.8,11.8
		c-1.3,0.6-1.6,1.8-2,2.9c-2.5,6.6-5,13.2-8.5,19.4c-4.9,8.8-11.8,16-19.3,22.5c-0.8,0.7-1.6,1.4-2.6,2.3c3.1,1.6,5.7,3.3,7.9,5.7
		c2.7,3,4.8,6.5,4.4,10.6c-0.6,5.3-4.5,7.8-8.9,9.8c-0.5-0.9,0.1-1.5,0.3-2c4.4-8.5,1.2-13.7-6.7-18.1c-5.4-3-10.3-1-15.4,0.5
		c-9.6,2.9-16.7,9.2-23.4,16.2c-0.5,0.5-0.9,1-1.3,1.4c-0.1,0.1-0.3,0.1-0.7,0.1c-0.1-9.7,2.7-17.9,11.3-23.6
		c-4.2-0.7-8.2-0.9-11.9,1.6c-3.5,2.4-5.4,6.3-8,9.7c-0.9-10.3,6-18.4,15.9-19.2c2.9-0.2,5.7-0.1,8.6,0.2c3,0.2,5.8-0.7,8.7-1.6
		c8.6-2.7,16.8-6.2,22.8-13.4c6.3-7.6,10.1-16.4,12.7-25.9c0.1-0.4,0.2-0.9,0-1.2c-3.2-5.8-3.6-12.4-5-18.7
		c-2.4-10.3-4.8-20.6-7.1-30.9c-0.4-1.8-1.4-3-2.9-4c-11-7.5-21.2-15.8-29.9-25.9c-5.5-6.4-10-13.4-12.7-21.5
		c-0.1-0.4-0.4-0.7-0.6-1.1c-18.2,12.8-20.1,26.1-9,42.3c0.9-0.7,0.8-1.9,1.2-2.8c1-2.3,2.3-4.4,4.6-5.6c2.7-1.4,5.5-1.6,8.1,0.4
		c2.9,2.2,3.7,5.3,3,8.6c-0.7,3.4-3.2,5.4-6.5,6.4c-1.8,0.5-3.6,0-5.7,0c2.4,3.4,4.9,6.5,6.9,9.9c3.4,6,5.4,12.5,7.2,19
		c0.5,1.8,1,2.1,2.6,1.2c2.1-1.2,4.4-1.6,6.9-1.1c3.4,0.7,5.6,2.7,6,5.7c0.4,3.1-1.4,6.3-4.2,7.7c-2.9,1.4-5.8,1.3-8.6,0
		c-1.6-0.7-2.2-0.4-2.4,1.2c-0.8,5.3-2.6,10.2-5.6,14.6c-0.9,1.3-0.3,1.6,0.7,2.3c6.4,4.3,6.5,12.9,0.2,16.2c-3.9,2-8.7,0.9-11.6-3
		c-1.4-1.9-2.2-1.8-3.9-0.4c-7,5.7-15.2,7.9-24,8.2c-0.8,0-1.6,0.1-2.5,0.1c-0.1,0-0.3,0.1-0.7,0.3c2.2,1.7,4.2,3.4,4.6,6.3
		c0.3,2.8-0.5,5.2-2.6,7.1c-3,2.7-7.7,2.5-10.5-0.4c-3.5-3.6-2.9-7.6,2.2-13.1c-3.3-0.3-6.4-0.6-9.6-1c-6.8-0.9-12.7-3.8-18-8
		c-1.3-1.1-1.9-0.8-2.8,0.4c-3.2,4.4-8.1,5.7-12.1,3.5c-6.2-3.4-6.2-11.9,0.1-16c1.6-1,1.5-1.6,0.6-2.9c-2.8-4-4.4-8.5-5.2-13.2
		c-0.4-2.1-0.6-3-3.1-1.9c-5.1,2.2-10.2,0-11.8-4.6c-1.4-3.9,0.7-7.8,4.7-8.8c2.8-0.7,5.6-0.5,8.1,1.1c1.3,0.8,1.7,0.5,2.2-0.9
		c2.2-7.5,4.4-15.1,8.9-21.8c1.7-2.4,3.4-4.8,5.3-7.4c-2-0.1-3.9,0.3-5.7-0.1c-4.6-1.1-7.5-5.6-6.5-10.4c0.8-4,4.6-6.6,8.7-5.9
		c3.5,0.6,5.6,2.9,6.9,6.1c0.4,1,0.8,2.1,1.2,3.3c7.2-9.5,10-21.5,3.1-30.8c-3-4-6.4-7.5-10.2-10.6c-0.7-0.6-1.6-1.6-2.3,0.3
		c-3.9,11.4-11.2,20.6-19.6,28.9c-7.2,7-15.1,13.2-23.4,18.8c-1,0.7-1.7,1.4-2.1,2.8c-3.4,14.4-6.9,28.7-9.7,43.2
		c-0.3,1.8-0.9,3.5-1.7,5.1c-1,1.8-0.9,3.4-0.1,5.3c4,9.9,8.7,19.3,16.5,26.9c6.6,6.4,14.5,10.4,23.5,12c2.2,0.4,4.3-0.2,6.4-0.4
		c3.5-0.3,6.8,0.2,10.2,1.1c5.4,1.4,8.4,5.1,10,10.2c0.8,2.5,1.6,5,1.5,8.6c-4.7-8-9.8-14.5-20.5-11.9c9.2,5.5,11.8,14.1,11.8,23.8
		c-0.9,0.2-1-0.6-1.4-1c-8-9.1-17.4-16-29.5-18.6c-6.4-1.4-14.4,2-17.6,7.8c-1.6,2.9-1.3,5.9-0.2,8.8c0.5,1.5,1.3,2.8,1.9,4.2
		c-7.7-2-12-8.9-7.7-16.4c2-3.5,4.8-6.3,8.4-8.1c2-1,2-1.6,0.3-3c-6.9-5.8-13.2-12.4-18.2-20c-4.2-6.5-6.9-13.8-9.7-21
		c-0.9-2.3-1.9-4.1-4.2-5.4c-4.9-2.8-6.7-7.7-7.7-12.9c-1.1-5.7-2-11.5-1.1-17.2c-7.6,1.7-12.1,7-15.9,13.1
		c-10.8,16.9-18.1,35.3-23.7,54.4c-0.5,1.8-0.3,3.3,0.3,5c3.4,8.8,7.4,17.2,12,25.3c6.8,12.1,17.1,20.4,28.6,27.6
		c4.9,3,10.1,5.5,15.3,7.9c6.6,3.1,13.7,3.1,20.7,4c8.6,1.1,17.3,2.2,25.4,5.4c8.1,3.1,13.9,8.6,16.5,17.1c1.7,5.7-0.7,12.8-5.5,16
		c0-2.3-0.1-4.4,0-6.4c0.1-2.7-1.2-4.9-2.7-7c-1.1-1.5-2.2-1.8-3.2,0.1c-0.2,0.3-0.5,0.6-0.8,1c-6.3-11.7-18.1-12.1-29.6-14.6
		c1.3,1.5,2.2,2.5,3,3.6c2.5,3.4,2.6,5.1,0.5,8.8c-3.2,5.4-3.7,5.5-8.9,2.1c-2-1.3-4-2.7-5.7-4.4c-3.4-3.3-3.1-6.7,0.6-9.6
		c0.4-0.3,0.8-0.6,1.4-1c-3.2-1.1-6.4-1.3-9.4-1.6c-7.9-0.9-15.9-1.3-23.8,0.4c-6.8,1.4-12,5.3-15.5,11.2c-2.2,3.6-0.7,6,3.5,6.1
		c6.8,0.1,13.4-1.1,20.1-1.9c0,0.9-0.8,1-1.2,1.3c-6.5,4.5-13.2,8.7-20.8,11.1c-1.2,0.4-2.5,0.7-3.8,0.9c-6.6,1.1-10.5-3-8.5-9.4
		c2.3-7.3,6.7-13.1,12.6-17.8c4-3.2,8.4-5.7,13.4-8.1c-3.1-2.3-6-4.5-8.9-6.7c-9-7-18.3-13.7-26.1-22.1
		c-6.4-6.9-11.2-14.9-16.3-22.8c-1.3-2-2.5-4.2-4.2-6.9c-0.5,5.3-1.1,9.9-1.5,14.5c-1.2,13.6-2.4,27.2-3.3,40.8
		c-0.7,10.2-1.1,20.5-1.4,30.8c-0.4,14,0.2,27.9,1.3,41.9c1.1,15,2.9,29.9,5.2,44.7c2.1,13.7,4.4,27.4,7.4,40.9
		c0.3,1.5-0.6,2.1-1.4,2.8c-5.5,4.3-11.8,7.1-18.4,9.2c-14.8,4.7-30,5.2-45.3,4.1c-10.8-0.7-21.4-2.4-31.6-6.1
		c-8.6-3.2-16.6-7.4-23.7-13.4c-1.2-1.1-1.8-2-1.5-3.8c2.7-16.4,5.2-32.9,7.8-49.3c2.4-15.1,5-30.1,7.9-45.1
		c3.6-18.8,8.3-37.3,12.6-55.9c5.5-23.3,11-46.6,16.6-69.8c5-21,10-41.9,15.1-63.3c15.7,22.3,36.3,26.9,61.2,17.1
		c-2.4,18.7-4.7,37.1-6.7,55.9c3-1.3,5.7-2.7,8.6-3.5c5.1-1.4,7.4-4.6,8.9-9.7c4.9-16.3,10.7-32.4,18.6-47.6c1.4-2.7,3-5.4,4.9-8.7
		c-10.5,4.3-20.3,8.5-30.4,11.9c-0.1-0.2-0.2-0.4-0.3-0.5c1.9-1.1,3.8-2.2,5.6-3.3c28.8-16.9,57.2-34.4,83.5-55.1
		c7.6-6,14.8-12.5,21.3-19.7c6-6.7,8.3-14.5,8.6-23.2c0.6-19.1-8-34-21.1-47.1c-10.2-10.2-22.7-15-36.4-17.5
		c-11.3-2-22.8-3-34.3-3.1c-3.3,0-6.5-0.5-10.4-0.1c2.1,1.2,3.8,2.2,5.6,3.2c8.7,5.2,16,11.7,21.6,20.2c5.1,7.7,5.9,15.6,2.8,24.1
		c-3.3,8.9-8.5,16.7-14.5,23.9c-14.2,17.4-31,32.2-48.7,45.9c-2,1.5-4.3,2.7-5.8,4.8c0,0,0,0,0,0c-0.4,0-0.6,0.1-0.5,0.5l0,0
		c-0.9,0-1.5,0.2-1,1.3l0,0c-1.2-0.6-1.8,0.4-2.5,1c-13.2,9.7-26.4,19.4-39.8,28.8c-0.7,0.5-1.5,0.9-2.3,1.4
		c-0.1-0.1-0.3-0.3-0.4-0.4c8.7-8.1,17.8-15.6,26.7-23.4c12.3-10.8,25.7-20.2,38.4-30.5c14.6-11.8,28.1-24.8,37.9-41
		c3.1-5.1,5.5-10.5,6.2-16.5c0.8-7.1-1.5-13.5-5.5-19.2c-5.1-7.3-11.5-13.2-19.1-17.8c-2.1-1.3-4.3-2.4-6.3-3.9
		c-2.9-2.3-6.2-2.1-9.8-1.7c1.4,2,3.3,3,4.9,4.2c11.1,8.1,16.6,19.5,18.8,32.6c0.7,4.1-0.8,8.1-2.4,11.9
		c-4.5,10.8-11.7,19.8-19.3,28.4c-8,9-17.5,16.4-26.5,24.3c-11.9,10.4-24.2,20.5-35.8,31.4c-5,4.7-9.8,9.6-14.4,14.8
		c-0.4,0.5-1.2,0.9-1,2.2c1-0.8,1.9-1.5,2.7-2.2c18.3-16.1,36.9-31.9,55-48.3c10.6-9.6,21.5-18.9,30.9-29.7
		c8.2-9.4,13.9-20.2,13.9-33.1c0-8.4-3.3-15.6-8.6-22c-2-2.4-4.2-4.7-6.2-7.2c3,1.5,5.4,3.7,7.9,6c4.8,4.4,9.2,9.2,11.8,15.3
		c3.7,8.9,2.2,17.5-1.4,26.1c-4.2,9.9-10.7,18-18.3,25.4c-16.9,16.4-34.9,31.5-52.9,46.5c-12.4,10.3-24.7,20.9-37.7,30.5
		c-5.2,3.8-10.3,7.5-13.3,13.5c-0.8,1.5-1.8,3-2.7,4.4c-0.1-0.2-0.3-0.4-0.4-0.6c1-2.4,1.9-4.8,3-7.7c-2.4,1.4-4.4,2.7-6.4,3.9
		c-0.1-0.1-0.1-0.1-0.2-0.2c0.5-0.5,0.9-1.2,1.5-1.6c5.4-3.7,8.2-9,10.7-14.9c6.9-16.6,13.7-33.3,22.1-49.1
		c8.7-16.4,17.5-32.7,26.2-49.1c3-5.7,5.9-11.5,9-17.2c0.8-1.5,0.3-1.7-1-1.9c-8.5-1.5-16.8-1-25.1,1.3c-7.6,2.1-14.9,4.9-22.2,8
		c-0.7,0.3-1.3,0.7-1.7,1.3c-4.9,7.4-8.5,15.2-8.1,24.3c0,0.9,0,1.7,1,2.3c7.7,4.9,9.4,12.4,8.7,20.8c-0.9,11.4-8.6,15.3-17.1,17.1
		c-5.2,1.1-10.5,1.2-16-0.3c0.6-0.9,1.4-1,2.1-1.2c0.8-0.3,1.6-0.5,2.3-0.9c3.9-1.9,8-3.6,9.7-8.2c0.6-1.5,0.7-2.2-1.4-2.4
		c-5.5-0.5-8.5-4.6-9-11.4c-0.6-9.2,2.1-17.5,6.3-25.5c0.4-0.8,0.8-1.6,1.2-2.4c0.1-0.2,0.1-0.3,0.2-0.5c-0.2,0.1-0.3,0.1-0.5,0.2
		C103.5,296,94,302.1,87.1,311c-11.6,15-12.1,31.5-5.1,48.6c0.7,1.6,1.4,1.8,2.7,0.6c2.3-2.1,2.6-4.6,2.1-7.4
		c-0.1-0.9-0.6-1.7-0.8-2.6c-0.2-0.8-1.2-1.8-0.5-2.5c0.8-0.7,1.9,0.1,2.7,0.6c4.9,2.6,7.9,10.8,5.8,15.9c-1,2.3-2.7,3.9-5,4.8
		c-1.5,0.6-1.9,1.1-1,2.7c2.7,4.5,6,8.4,10.3,11.4c1.4,1,2.5,1.1,4,0.2c3-1.8,4.7-4.3,4.6-7.8c-0.1-2.4-0.1-4.7-0.7-7.2
		c6.6,3,10,9.9,8.3,16.4c-0.9,3.6-3,6.2-6.5,7.6c-0.8,0.3-1.6,0.3-1,1.6c4.1,9.2,2.4,17.8-2.7,26c-4,6.3-9.3,11.4-15.1,16.1
		c-2.5,2.1-2.5,2-0.6,4.6c3.1,4.2,5.6,8.6,5.3,14c-0.4,6.1-2.1,11.8-5.8,16.7c-2.8,3.7-6.8,5.7-11.3,6.3c-8.4,1.1-16.1-0.1-22.2-6.5
		c-4.2-4.4-5.2-10.7-2.7-16c1.8-3.8,4.7-5.3,8.8-4.3c4.2,1,7.6,4.4,7.7,7.6c0,3.3-1.2,4.3-4.4,3.5c-0.4-0.1-0.7-0.4-1.3,0
		c0.3,1.9,1.4,3.2,3.4,3.6c2.6,0.5,4.9-0.1,6.6-2.2c3.7-4.6,2.3-12.2-2.9-15.6c-4.2-2.7-9.1-3.7-13.9-4.7c-7.8-1.7-15.4-3.8-23-6.4
		c-7.2-2.5-13-6.5-15.9-13.9C16.8,421.7,16.8,420.7,16.8,419.7z M218.1,218.8c0.5,0.1,0.7,0.2,1,0.2c14.6,0,29.2,0.5,43.8,1.8
		c13.1,1.2,26.1,3,38.5,7.6c1.8,0.7,2.3,0.2,2.4-1.5c0.5-5.9,1.2-11.8,2.2-17.6c1.5-9,3.3-17.8,7.6-26.1c4.1-8,6.6-16.6,7.6-25.6
		c0.9-8.9-3.1-15.9-11.4-19.2c-12.8-4.9-25.1-3.8-36.8,3.5c-11.6,7.2-20.9,16.7-28.4,28c-8.6,13.1-15.4,27.1-22.6,41
		C220.7,213.4,219.5,216.1,218.1,218.8z M548.2,219c1.6,0,3.1,0,4.7,0c2.9,0,3-0.1,1.7-2.6c-5.6-11.2-11.4-22.2-17.3-33.2
		c-7.8-14.4-17.3-27.3-30.4-37.3c-11.6-8.9-24.3-12.7-38.8-9c-10.9,2.8-16.5,10.4-15.4,21.1c0.9,8.5,3.3,16.6,7.1,24.2
		c3.1,6.3,5.4,12.8,6.8,19.7c1.5,7.7,2.7,15.5,3.3,23.4c0.3,3.9,0.3,3.9,3.9,2.6c6.6-2.4,13.3-4,20.2-5.1
		C512,220,530.1,219.3,548.2,219z M88.9,403.4c-0.1-4.7-2.6-7.9-6.3-10.5c-8.4-5.8-16-12.3-22.4-20.3c-1.1-1.3-1.6-1.1-2.5,0
		c-7.6,9.4-10.3,20-8.1,31.8c2.4,12.6,12.9,18.7,22.6,21.1c1.1,0.3,2-0.1,2.9-0.8c2.7-2.3,5.3-4.7,7.5-7.5
		C85.9,413.2,88.8,408.9,88.9,403.4z M722.3,398.1c0-10.1-2.8-18.2-8.7-25.4c-1.1-1.4-1.7-1.2-2.7,0.1c-6.4,7.8-13.9,14.4-22.2,20.1
		c-6.1,4.2-7.9,10.2-4.8,17c2.9,6.3,7.6,11,12.8,15.4c0.8,0.7,1.7,0.5,2.6,0.3C712,422.3,722.8,413.5,722.3,398.1z M368,388
		c0.1,10.6,5.6,17.9,14.2,21.6c3.1,1.4,6.2,1.5,9.3,0.1c2.6-1.1,5-2.5,7.1-4.4c6.7-5.8,9.5-14.7,5.3-23.1c-3.9-7.8-9.8-13.9-16-19.8
		c-1-1-1.6-0.3-2.2,0.3c-4.4,3.9-8.4,8.1-11.8,12.9C370.8,380.2,368,384.9,368,388z M182.6,585.5c1.8,0,3.6-0.1,5.4,0
		c1.9,0.2,2.2-0.7,2.1-2.3c-0.2-2.8-0.4-5.6-0.4-8.4c0-1.6-0.5-1.5-1.9-1.4c-7.7,0.7-15.1-0.1-21.9-4.1c-6-3.5-10.6-8.5-14.8-14
		c-1-1.4-1.7-1.7-3-0.4c-0.9,0.8-1.9,1.6-3,2.1c-10.2,5.5-21,8.3-32.7,6.6c-1.4-0.2-2.1,0.2-2.4,1.6c-0.6,2.9-1.2,5.8-1.9,8.6
		c-0.3,1.2,0,1.8,1.2,2.2c3.5,1.2,7,1.5,10.7,1.7c9.1,0.3,17.5-2.2,25.6-6.1c1.7-0.8,2.7-0.7,4,0.8c2.5,2.9,5.5,5.3,8.8,7.5
		C165.8,584.9,174.1,585.5,182.6,585.5z M591.3,585.6c13.5-0.1,22.5-1.5,33.7-13.8c0.8-0.9,1.5-0.6,2.4-0.2c3.1,1.5,6.3,2.7,9.6,3.8
		c8.8,2.9,17.7,3.3,26.7,1.2c1.7-0.4,2.5-1,1.9-3.1c-0.8-2.5-1.3-5.1-1.7-7.7c-0.3-1.7-1-2.2-2.8-2c-11.7,1.5-22.6-1.2-32.8-7
		c-1.5-0.8-3.1-2.9-4.2-2.6c-1.4,0.4-2.3,2.5-3.5,3.9c-7.8,9.6-17.3,16-30.3,15.6c-1.9-0.1-4.9-1-5.5-0.1c-1,1.4-0.5,3.9-0.7,5.9
		c-0.4,6-0.4,6,5.5,6C590.1,585.6,590.7,585.6,591.3,585.6z M188.3,265.4c-3.2,5.7-6,11.5-9.5,16.8c-3.1,4.6-2.4,8.5,0.3,12.7
		c0.7,1,1.3,2.1,2,3.1c5.2,7.5,11.8,13,21.2,14.3c1,0.1,1.7,0.1,2.4-0.6c3.7-3.8,7.4-7.5,11.1-11.2c1.1-1.1,0.7-1.5-0.5-2
		c-2.9-1.1-5.6-2.8-8.3-4.4c-9.5-5.6-15.8-13.4-17.7-24.5C189.1,268.2,189.3,266.8,188.3,265.4z M585.6,265.4
		c-0.7,1-0.6,1.9-0.8,2.8c-1.4,7.6-3.8,14.6-9.9,19.9c-4.9,4.3-10.3,7.9-16.3,10.4c-1.6,0.7-1.3,1.2-0.3,2.2
		c3.6,3.6,7.2,7.2,10.7,10.9c0.8,0.8,1.5,1,2.6,0.8c13.3-1.6,22.3-13.8,25.5-22.6c0.4-1.1,0.7-2.4,0-3.6
		C593.3,279.2,589.5,272.4,585.6,265.4z M189.5,425c2.6-0.2,5.9-0.5,9.1-0.8c0.9-0.1,1.5-0.4,1.7-1.4c0.4-3.5,0.7-7,1.2-10.5
		c0.2-1.4-0.5-1.4-1.6-1.1c-3.1,0.7-6.3,1.1-9.5,1.4c-7.3,0.5-14.4,0.2-21.2-2.8c-7.1-3.1-13.1-7.7-18.8-12.8c-1.2-1-1.6-1.1-2,0.6
		c-0.8,3.5-1.8,7-2.7,10.5c-0.3,1.2,0,2,0.9,2.8c5.1,4.5,10.6,8.3,17,10.6C171.8,424.2,180.3,424.5,189.5,425z M623.6,396.8
		c-1.1,1-1.9,1.7-2.8,2.5c-9.1,7.9-19.2,13.7-31.8,13.5c-4.9-0.1-9.8-0.5-14.6-1.6c-1.9-0.4-2.1,0.2-1.9,1.8c0.4,3.1,0.8,6.2,1,9.3
		c0.1,1.5,0.6,1.9,2,2c9,1.2,18,0.4,26.9-1c8.3-1.3,15.6-4.7,22.1-9.9c1.9-1.5,2.7-2.9,1.9-5.4C625.3,404.5,624.6,400.9,623.6,396.8
		z M480.8,361.3c0,0.6-0.1,0.9,0,1.2c1.2,5.9,2.3,11.9,3.5,17.8c1.3,6.2,2.5,12.4,4.1,18.5c1.1,4.4,3.8,6,8.3,5.6
		c3.9-0.4,6.2-2.8,7.5-6.3c2.6-7.1,2.4-14.5,1.7-21.9c-0.1-1.2-1-1.6-1.9-2.1c-3.2-1.7-6.3-3.5-9.6-5
		C489.7,366.9,485.5,364,480.8,361.3z M293.5,361.1c-6.1,4.1-11.9,7.7-18.1,10.1c-5.8,2.3-8.2,5.8-7.7,12c0.5,5.1,0.4,10.3,2.3,15.2
		c1.6,4.2,4.8,6.2,9.1,6c3.7-0.2,5.6-2.1,6.9-6.8c0.1-0.3,0.2-0.6,0.2-1c1.7-8.1,3.3-16.2,5-24.3C292,368.9,292.7,365.3,293.5,361.1
		z M626.3,544.3c-1.1-16.7-2.7-33-5-49.2c-2.3-16.8-5.3-33.5-8.8-50.1c-1-5-2.3-9.9-3.4-14.8c-0.4-1.6-1.4-2.7-3.2-2.3
		c-1.7,0.4-2.1,1.7-1.8,3.3c0.1,0.4,0.2,0.8,0.3,1.2c3.8,15.7,6.9,31.5,9.5,47.5c3.5,21.3,5.9,42.7,7.4,64.3c0.1,2-0.3,4.6,2.8,4.4
		C627.1,548.3,626.2,545.7,626.3,544.3z M148.2,545.9c0,0.9,0.2,2.5,2.3,2.7c2,0.1,2.7-1.3,2.8-3c0-0.4,0.1-0.8,0.1-1.2
		c1-18,3-35.8,5.6-53.6c2.9-19.9,6.6-39.6,11.4-59.1c0.5-1.9,0.1-3.2-1.7-3.7c-1.9-0.5-2.7,0.7-3.1,2.3c-0.8,3.3-1.6,6.5-2.3,9.8
		c-4.1,18.3-7.4,36.8-10,55.4C151.1,511.9,149.4,528.5,148.2,545.9z M629.8,657c0,5.9,0,11.8,0,17.7c0,1.7,0.7,3,2.5,3.1
		c1.6,0,2.5-1,2.6-2.7c0.1-5.6,0.3-11.2,0.3-16.7c-0.1-15.8-0.7-31.7-1.8-47.5c-0.6-9.2-1.4-18.3-2.1-27.5c-0.1-1.8-0.9-3.1-2.9-2.9
		c-2.1,0.2-2.3,1.7-2.1,3.4c0.5,5.7,0.9,11.5,1.3,17.2C628.9,619.7,629.8,638.3,629.8,657z M139.7,651.1c0,7.8,0,15.6,0,23.4
		c0,1.8,0.7,3.3,2.6,3.2c1.9,0,2.4-1.5,2.4-3.3c-0.2-10.3-0.2-20.7,0.1-31c0.4-10.5,0.7-21,1.5-31.5c0.7-9.3,1.4-18.7,2.1-28
		c0.1-1.7-0.2-3.3-2.3-3.4c-2-0.1-2.6,1.2-2.8,3c-0.5,6.3-1,12.6-1.5,18.9C140.7,618.6,140.1,634.9,139.7,651.1z M132,201.2
		c1.6-1,2.1-2.5,2.7-3.8c6.7-13.2,16.8-23,30.2-29.3c3-1.4,6.2-2.7,8.9-4.7c2.6-1.9,2.4-4.8-0.4-6.4c-0.6-0.3-1-0.5-1.5,0.1
		c-3.6,4.6-8.8,7.1-13.8,9.7C144.4,174.3,136.3,186.1,132,201.2z M642,201.8c-2-7-4.5-13.7-8.7-19.8c-5.5-8-13.3-13.3-21.7-17.7
		c-3.2-1.7-6.2-3.6-8.8-6.3c-0.6-0.6-0.8-2.1-2.2-1.5c-1.3,0.6-2.3,1.6-2.4,3.2c-0.1,1.5,0.7,2.5,1.8,3.3c2.5,1.9,5.4,3,8.2,4.4
		c10.1,5,19.2,11.3,25.5,21C636.6,192.8,639.2,197.3,642,201.8z M350.6,161.7c-5.2-3.1-10.1-4.8-15.4-5.5c-1.5-0.2-3.2-0.9-4.3-0.4
		c-1.6,0.7-0.4,2.8-0.9,4.2c-0.1,0.2-0.1,0.3-0.1,0.5c-0.2,3.6-1.9,6.8-3,10.3C333.7,165.5,341.5,163.1,350.6,161.7z M423.3,161.8
		c9,1.2,16.8,3.8,23.8,8.9c-2.1-4.6-3.5-9.2-3.4-14.2c0-1-0.7-0.9-1.4-0.8C435.8,156.5,429.5,158,423.3,161.8z M136.2,380
		c-0.1-0.3-0.1-0.7-0.5-0.4c-0.3,0.2-0.5,0.4-0.7,0.6c-0.3,0.3,0.1,0.4,0.2,0.4C135.6,380.4,135.9,380.2,136.2,380z M638.3,379.8
		c-0.1,0.1-0.3,0.2-0.3,0.3c0.1,0.2,0.2,0.3,0.4,0.4c0.1-0.1,0.2-0.3,0.2-0.4C638.6,380,638.4,379.9,638.3,379.8z"/>
	<path class="st1" d="M382,742c-2.6-0.7-5.2-1.2-7.8-2c-6.3-2-10.8-6.2-13.7-12c-3.5-7.1-1.2-15.9,5.6-21.7c2.3-2,4.9-3.7,7.7-4.7
		c1.1-0.4,1.6-0.9,1.3-2.2c-4.7-17-9-34.2-21.3-47.9c-3.9-4.4-8.5-8-14.7-8.8c-4.4-0.6-7.9,0.9-10.7,4.2c-2.3,2.7-3.8,5.9-5.1,9.2
		c-3.1,7.4-6.2,14.8-11.7,21c-7.9,8.9-20.3,11.8-29.9,6.7c-6-3.2-10.2-8.2-13.2-14.2c-1.2-2.4-2.4-2.8-4.7-2
		c-3.4,1.1-7,1.9-10.6,1.7c-5.8-0.3-10.1-3.2-13.3-8.1c-6-9.1-6-23.3,0.4-31.6c2.8-3.7,6.5-5.5,11.2-4.5c2.8,0.6,4.9,3.1,5.2,5.9
		c0.1,1.1-0.3,1.4-1.4,1.4c-1.6,0-3.3,0.1-4.9,0.6c-3.6,1.3-5.6,4-5.7,8.1c-0.1,3.3,1.2,5.7,4.2,6.8c3.9,1.5,7.3,0.2,10.1-2.6
		c3.9-3.8,6.2-8.6,8.5-13.5c0.2-0.4,0.4-0.9,0.6-1.4c2-3.6,3.4-7.2,0.2-11c-0.9-1-1.1-2.6-1.2-4c-0.1-1.1,0.1-2.2,1-2.9
		c1-0.8,2.2-0.5,3.3,0.1c1.6,0.9,3,2.1,4.1,3.5c1,1.3,1.8,1.4,3.2,0.4c5.7-4.1,11.8-7.5,18.8-8.7c16.1-2.8,30.4,1.5,43.1,11.6
		c3.1,2.5,6,5.3,9,8.5c1.2-3.8,2.2-7.2,3.4-10.7c1.9-5.9,4.1-11.7,9-15.8c0.8-0.7,0.6-1.4,0.3-2.2c-0.8-2.1-1.7-4.1-3-5.9
		c-2.2-3.2-4.9-4-8.6-2.5c-0.7,0.3-1.2,0.9-2,0.7c-0.2-3.9,1.7-6.9,5.2-7.9c5.4-1.5,9.5,1.3,14,9.8c1.8-3.2,2.8-6.5,4-9.8
		c1.5-4.3,2.5-8.6,3.5-13.1c1.3-6,4.5-10.6,9.4-14.2c1.8-1.3,3.2-1.1,4.9,0.1c4.9,3.6,8.2,8.2,9.4,14.3c1.6,7.7,3.9,15.2,7.2,22.6
		c1-0.5,1-1.5,1.4-2.2c2.1-4.1,4.9-7.5,10-7.7c5-0.2,8,2.9,8,8c-0.3,0.3-0.6,0.1-0.9,0c-5.2-2.5-7.9-1.6-10.7,3.4
		c-0.2,0.4-0.4,0.7-0.6,1.1c-2.1,4.2-2,4.1,1,7.6c2.6,2.9,4.3,6.4,5.6,10.1c1.4,4.1,2.8,8.2,3.9,12.4c0.5,2,1,1.9,2.2,0.5
		c5.3-5.9,11.6-10.8,18.8-14.1c17.3-8.1,34-7.3,49.8,3.8c1.9,1.3,3,1.6,4.5-0.4c0.8-1.1,2-1.9,3.2-2.7c1-0.8,2.3-1.1,3.5-0.4
		c1.3,0.8,1.3,2.2,1.1,3.5c-0.4,2.4-1.5,4.5-2.8,6.5c-0.6,0.9-0.8,1.7-0.4,2.8c2.5,6,5,12,8.9,17.3c1.4,2,3.1,3.6,5.3,4.7
		c4.1,2.2,8.8,1.2,10.8-2.5c2-3.7,0.3-9-3.5-11.1c-1.9-1.1-4-1.4-6.2-1.4c-1.5-0.1-1.7-0.6-1.4-2c1.3-5.6,8.2-7.4,13.4-3.5
		c3.2,2.4,5.1,5.7,6.2,9.5c2.5,8.1,1.8,16-2.1,23.4c-4,7.7-10.7,10.7-19.4,9.1c-2-0.4-4.1-0.7-6-1.4c-2-0.7-3-0.4-4,1.6
		c-2,4.2-4.7,7.9-8.3,11c-9.9,8.7-23.3,8.2-33.2-1c-5.7-5.3-8.9-12.1-12-19.1c-1.4-3.2-2.6-6.6-4.4-9.6c-4.7-8.2-11.8-10.1-20-5.2
		c-7.3,4.4-12.2,11-16.1,18.2c-6.1,11.2-9.5,23.4-12.8,35.6c-0.5,1.6,0.3,2.3,1.7,2.9c6.3,2.7,11.2,6.9,13.5,13.6
		c3,9-2.3,19.5-11.8,23.8c-3.3,1.5-6.9,1.9-10.3,3C388.6,742,385.3,742,382,742z M322.8,625.2c-4.4-1.5-8.6-2.1-12.8-2.4
		c-11.2-0.6-21,2.9-26.2,13.2c-3.9,7.9-4.3,15.8,1.2,23.2c3,4.1,7.4,5.3,10.9,3.2c1.5-1,2.3-2.5,3.2-4c4.9-7.9,9-16.2,14.3-23.8
		C315.9,631.1,318.5,627.6,322.8,625.2z M450.7,625c4.7,3.2,7.3,5.9,11.1,12.2c4.6,7.6,9,15.3,13.7,22.8c2.5,4.1,6.4,4.6,10.3,1.8
		c1.3-0.9,2.4-2,3.3-3.3c7.1-10.2,2.5-24.2-5.7-30.4C473.4,620.6,462.3,622.3,450.7,625z"/>
	<path class="st0" d="M387.5,16.5c-0.1,3.5,1.3,6.5,2.5,9.6c2.9,7.7,7.8,14.2,11.7,21.4c2.7,4.9,5.9,9.5,7.1,15.1
		c1.5,7.2,1.2,14.4,0.6,21.6c-0.1,1.3-0.8,3,0.1,3.7c0.9,0.8,2.2-0.7,3.2-1.3c2.6-1.4,5.3-2.2,8.1-2.9c1.5-0.4,1.8-0.8,0.8-2.1
		c-1.9-2.5-3.4-5.3-4.6-8.1c-1.4-3.2-0.9-5.5,1.5-6.9c2.8-1.5,5.7-0.7,7.6,2.3c1.6,2.6,3.2,5.2,4.8,7.8c0.4,0.7,0.8,1.6,1.8,0.6
		c4.2-4.2,8.5-8.2,9.9-14.4c0.8-3.6,0.3-6.8-1.8-9.8c-0.5-0.7-1-1.1,0.1-1.7c3.9-2.2,7.9-3.4,12.2-1.8c5.1,1.9,6.8,6.3,7.5,11.2
		c0.2,1.4,0.6,2.5,1.7,3.5c3.3,2.9,4,7.1,4.2,11.2c0.7,14.3-5.8,24.5-17.9,31.5c-4.6,2.7-9.5,4.8-14.3,7.2
		c-10.2,5.1-17.8,13.1-25.3,21.3c-5.7,6.3-12.2,11.7-19.8,15.6c-1.5,0.7-2.7,0.7-4.1,0c-6.9-3.5-12.9-8.2-18.1-13.8
		c-6.9-7.4-13.6-15-22.3-20.5c-4.8-3-10.1-5.1-15.1-7.7c-7.9-4.2-15.1-9.1-19-17.6c-3.1-7-3.8-14.4-1.9-21.9
		c0.4-1.5,0.9-3.2,2.1-4.1c2.3-1.7,2.7-4.1,3.3-6.7c2.2-10.3,10.6-12.1,18.8-7.8c1.1,0.6,1.4,1,0.6,2.2c-3.3,4.9-2.4,9.9,0.2,14.6
		c2,3.5,4.9,6.4,7.8,9.2c0.9,0.9,1.4,0.7,2-0.3c1.6-2.7,3.2-5.4,4.8-8c1.4-2.2,3.7-3.3,5.8-2.9c3.3,0.7,4.8,3.2,3.6,6.5
		c-1.2,3.3-3,6.2-4.9,9c-1,1.4-0.8,1.9,0.9,2.3c4,0.9,7.8,2.5,11.6,5.1c-0.4-4.7-0.5-8.9-0.8-13c-0.7-10.1,2.4-19,7.5-27.5
		c4.3-7.1,9.1-13.9,12.1-21.7c1.3-3.2,2.8-6.5,2.7-10.1C386.8,16.5,387.1,16.5,387.5,16.5z M386.7,105.9c1.1-0.6,1.4-1.5,1.9-2.3
		c2.8-4.3,5.7-8.6,10.1-11.3c2.8-1.8,3-3.9,2.3-6.7c-2.6-9.9-6.9-18.9-12.7-27.3c-1.2-1.7-1.8-1.3-2.8,0.1c-3.3,4.5-5.8,9.3-8,14.4
		c-1.9,4.3-3.7,8.6-4.7,13.2c-0.6,2.6-0.4,4.6,2.2,6.3c3.7,2.3,6.5,5.8,8.9,9.5C384.8,103,385.8,104.4,386.7,105.9z M339.6,103.5
		c11.9,7.5,23.1,15.9,33.9,25C367.5,112.9,354.5,107,339.6,103.5z M434.5,103.7c-14.2,0.7-32.7,14.3-33.9,25.1
		C411.3,119.3,422.5,111,434.5,103.7z"/>
	<path class="st1" d="M385,532.4c-7.2-0.2-15.6-2.5-22.3-9.1c-7.9-7.9-7.8-18.9,0.4-26.6c5.7-5.3,12.6-7.9,20.3-8.4
		c9.2-0.7,17.8,0.9,25.4,6.6c11.1,8.3,11.2,22,0.3,30.5C402.5,530.5,395,532.4,385,532.4z"/>
	<path class="st2" d="M585.6,352.6C585.6,352.6,585.7,352.6,585.6,352.6c-0.6,1.2,0.5,1.6,1.1,2.2c3.1,3.5,6,7.2,8.3,11.3
		c0.6,1.1,1.2,2.4,1.5,3.6c1,3.7,0.1,6.2-3,8.1c-6.3,3.9-13.5,5.3-20.7,6.8c-0.5,0.1-1-0.1-1.4-0.4c-4.7-3.2-9.2-6.6-13.1-10.8
		c-4-4.3-1.8-11,1.7-13.8c4.8-3.8,10.2-5.9,16.1-7c2.6-0.5,5.2-0.7,7.8-1.1c0,0,0,0,0,0c-0.1,0.4,0.1,0.6,0.5,0.5c0,0,0,0,0,0
		C584.6,352.7,584.9,353.2,585.6,352.6z M575.6,379.2c2.7,0.1,5.2-0.4,7.8-1c4.5-1.2,5.9-3.6,4.7-8.1c-1.1-4.4-3.5-8.1-6-11.8
		c-0.5-0.7-1-1-1.9-0.7c-5.1,1.6-10.1,3.4-14.4,6.8c-3.5,2.8-3.9,6.3-0.9,9.6C567.8,377.2,571.1,379.6,575.6,379.2z"/>
	<path class="st2" d="M188.5,353.3C188.5,353.3,188.5,353.3,188.5,353.3c0.5-0.3,1.1-0.6,1-1.3c0,0,0,0,0,0c0.4,0.1,0.6-0.1,0.5-0.5
		c0,0,0,0,0,0c8.3,0.9,16.4,2.2,23.3,7.6c5.5,4.3,6,10.5,1.1,15.5c-3.5,3.6-7.6,6.5-11.7,9.4c-0.7,0.5-1.3,0.5-2.1,0.4
		c-5.8-1.1-11.6-2.5-17-4.9c-6.6-3-8.7-6.2-4.4-14.1C181.7,360.9,185.1,357.1,188.5,353.3z M198,379.2c4.3,0,7.3-1.3,10.2-4.4
		c3.7-3.8,3.4-7.7-0.8-10.9c-4.1-3.1-8.9-4.8-13.8-6.4c-0.8-0.3-1.4-0.1-1.9,0.6c-2.5,3.7-4.9,7.6-6,12c-1.1,4.2,0.3,6.6,4.5,7.8
		C192.8,378.8,195.5,379.4,198,379.2z"/>
	<path class="st2" d="M236.1,375.3c3.1-1.4,6.2-2.7,9-4.7c0.5-0.3,0.9-0.7,1.4-1c4.4-3.8,4.5-7.6,0.2-11.4c-2.9-2.6-6.2-4.5-9.7-6.2
		c-1.1-0.5-1.5-0.3-2.2,0.6c-2.4,3.3-4.8,6.7-6.9,10.2c-2.2,3.6-1.9,6.3,1.3,9.1c1.2,1.1,2.5,2,3.6,3.2c-4.4-0.7-8.5-1.9-11.3-5.5
		c-2.4-2.9-1.8-6.1-0.3-9.3c2.2-4.9,5.8-8.7,9.5-12.5c1.7-1.8,3.2-2.1,5.6-1.3c5.8,2,11.6,4.1,16.4,8.2c7.1,6.1,6,14.7-2.5,18.9
		C246.1,375.5,239.7,376.4,236.1,375.3z"/>
	<path class="st2" d="M540.5,375.2c2.3-1.6,4.2-2.9,5.6-4.7c1.6-2.1,2-4.2,0.6-6.6c-2.3-4-5-7.7-7.7-11.4c-0.5-0.7-0.9-1-1.8-0.6
		c-3.8,1.9-7.6,3.9-10.6,7c-3.5,3.6-3.3,7,0.5,10.4c2.5,2.3,5.5,3.8,8.6,5.1c0.7,0.3,1.4,0.7,2.1,1.2c-6.8,0.3-13.5,0.2-18.5-5.5
		c-3.4-3.9-3.5-9-0.2-13c3.3-4.1,7.9-6.3,12.6-8.3c1.5-0.7,3.2-0.9,4.6-1.7c3.3-1.7,5.7-1,8.2,1.9c3.1,3.6,6.4,7.1,8.4,11.5
		c2.4,5.3,1.1,9.2-3.8,12.1C546.9,373.9,543.3,375,540.5,375.2z"/>
	<path class="st2" d="M279.2,340.5c-6.3-2.3-10.9-10.3-7.1-17.5c2.5-4.8,6.5-8.4,10.7-11.8c0.8-0.6,1.4-0.6,2.2,0
		c5.1,3.7,9.8,7.7,13.3,13.1c1.4,2.2,2.6,4.6,2.8,7.3c0.6,8.1-3.3,12.3-11.5,12.5c-2.6,0.1-5.2-0.3-8-1.1c2.3-0.9,4.3-1.7,6.3-2.6
		c1-0.4,1.9-1,2.8-1.6c4-2.9,4.8-5.8,2.4-10.2c-1.8-3.4-4.1-6.6-6.4-9.6c-0.8-1-1.3-1.2-2.3-0.1c-2.4,2.7-4.5,5.4-6.2,8.5
		c-1.4,2.6-1.1,5.4-0.4,8.2C278,337.2,278.7,338.8,279.2,340.5z"/>
	<path class="st2" d="M494.6,340.7c1-3,2-5.7,2.2-8.6c0.2-4.2-2.3-7.1-4.6-10c-3.7-4.9-3.7-4.9-7.3,0.1c-1.8,2.5-3.5,5-4.6,7.8
		c-1.5,3.7-0.7,6.2,2.6,8.6c2.8,2,5.9,3.1,9.7,4.3c-5,1.3-9.3,1.7-13.7,0.3c-5-1.7-7.3-7.1-5.8-13.1c0.8-3.2,2.5-5.9,4.5-8.4
		c3.2-4,7.1-7.3,11.2-10.3c0.9-0.6,1.5-0.7,2.4,0c3.6,2.9,7,6,9.5,9.9C505.5,328.5,503,336.8,494.6,340.7z"/>
	<path class="st3" d="M264.1,311.4c2.7-1,5.3-2,7.4-3.9c2-1.7,2.3-3.8,1.6-6.2c-1.2-3.9-3.4-7.1-5.9-10.1c-0.9-1-1.4-1-2.2,0.1
		c-3.6,4.3-5.5,9-5.3,14.7c0.1,2.1,0,4.2,0,6.4c-5.6-2.5-7.9-9.1-5.2-14.7c2.9-5.9,7.7-10.1,12.6-14.3c0.5-0.4,1-0.6,1.5-0.1
		c5.3,5.5,10.4,11.2,11.3,19.4c0.3,3-1.1,5-3.6,6.5C273.2,310.8,268.1,311.8,264.1,311.4z"/>
	<path class="st2" d="M510.3,311.5c-4.1,0.3-7.4-0.4-10.6-1.5c-5-1.8-6.7-5.1-5.3-10.3c1.8-6.5,5.9-11.5,10.4-16.2
		c0.7-0.7,1.3-0.9,2.1-0.2c4.6,4,9.1,8.1,12.1,13.5c3.2,5.8,1.2,12.4-4.6,15.4c-0.3-3.3-0.1-6.6-0.3-9.8c-0.3-4.7-2.8-8.1-5.4-11.6
		c-0.6-0.8-1.1-0.8-1.8,0c-2.5,3.1-4.8,6.3-6,10.1c-1.1,3.5-0.3,5.8,2.9,7.7C505.6,309.8,507.5,310.7,510.3,311.5z"/>
	<path class="st2" d="M492.6,271.2c0.6-6.1-1.1-11.3-5.5-15.7c-1.1-1-1.6-1.1-2.8-0.2c-2.4,1.8-4.6,3.7-6.2,6.3
		c-2,3.3-1.4,6.5,1.5,9c2.2,1.9,5,2.7,8.1,3.9c-4.4,0.9-8.4,1.3-12.3,0.1c-4.3-1.4-6.2-5-4.7-9.1c2.4-7.1,7.6-12.4,12.7-17.6
		c0.7-0.7,1.5-0.4,2.3,0c4.2,2.3,7.7,5.3,10,9.6C497.9,261.6,496.7,267,492.6,271.2L492.6,271.2z"/>
	<path class="st2" d="M281.5,271.1c-4.8-4.7-5.6-10.4-2.4-15.3c2.3-3.5,5.4-6.1,9.1-8.1c0.8-0.4,1.6-0.8,2.4,0
		c4.8,4.9,9.4,9.8,12.1,16.3c2.4,5.8-0.6,10.5-6.9,11c-3,0.2-6.1,0.2-9.1-0.6c0.3-0.7,1-0.6,1.6-0.8c1.4-0.6,2.9-1.1,4.3-1.9
		c5-2.8,5.8-7.5,2.1-11.8c-0.7-0.9-1.5-1.7-2.4-2.5c-5-4-3.6-3.9-7.7,0.9C281.6,261.8,280.9,266,281.5,271.1z"/>
	<path class="st2" d="M318.1,433.7c-0.9-7.5-3.8-13-10.1-16.3c-2.4-1.3-2.5-2.7-0.6-4.7c1.8-1.9,4.1-2.3,6.5-1.6
		c4.5,1.2,7.7,5.4,7.7,10.5C321.6,425.7,320.4,429.5,318.1,433.7z"/>
	<path class="st2" d="M455.7,433c-2.3-4.4-3.9-8.8-3.1-13.8c0.6-3.8,4.4-7.6,8.2-8.3c2-0.3,3.9,0.1,5.5,1.5c2.2,1.9,2.2,3.7-0.3,5
		C459.7,420.8,456.8,426.2,455.7,433z"/>
	<path class="st3" d="M471.3,601.8c-8.7-4.1-13.6-3.8-19.4,4.5c-0.5-3.9,1.5-10.9,3.9-13.7c3.6-4.3,9.1-4.1,12.3,0.5
		C469.9,595.7,470.9,598.6,471.3,601.8z"/>
	<path class="st3" d="M322.3,606.2c-5.9-8.6-11.8-8.3-19.8-4.4c1-4.3,2.1-8.3,5.5-11c2.6-2.1,6.6-1.7,9.2,0.9
		c2.9,2.9,3.8,6.6,4.5,10.4C322,603.5,322.1,604.9,322.3,606.2z"/>
	<path class="st3" d="M457.4,675.5c0.2,1.2,0.4,2.4,0.6,3.6c0.4,2.1,1.4,3.6,3.6,4.3c1.7,0.5,3.4,1.2,3.3,3.4
		c-0.1,2.1-1.4,3.7-3.3,4.6c-1.9,0.9-3.5,0.1-4.9-1.3c-2.9-2.8-3.7-9.7-1.5-13.1C455.7,676.1,456.3,675.5,457.4,675.5z"/>
	<path class="st2" d="M319.8,681.9c0.1,3-0.4,5.5-2.1,7.7c-1.3,1.6-2.9,2.5-5,1.9c-2-0.7-3.2-2.3-3.6-4.3c-0.4-1.7,0.7-2.9,2-3.2
		c3.7-1,4.9-3.7,5.2-7.1c0-0.4-0.2-1.1,0.4-1.3c0.7-0.2,1.3,0.3,1.6,0.9C319.6,678.1,320,680.1,319.8,681.9z"/>
	<path class="st3" d="M449.6,662.5c-1.2,3-3.5,4.8-6.6,5.6c-2.4,0.6-4.6-1.2-4.8-3.7c-0.2-2.7,0.3-5.4,1.6-8.1
		C442.2,660,444,664.4,449.6,662.5L449.6,662.5z"/>
	<path class="st2" d="M324.3,662.5c4.5,1.1,5.9,0.5,9.7-6.2c1.7,2.8,2.1,5.8,1.6,8.9c-0.3,2-2.5,3.4-4.4,3
		C327.9,667.4,325.7,665.4,324.3,662.5L324.3,662.5z"/>
	<path class="st3" d="M628.8,383.7c0-0.2,0-0.4,0.1-0.6c2,0.5,3.1,2.2,4.4,3.6l0,0C631.5,386.1,630.1,384.9,628.8,383.7z"/>
	<path class="st3" d="M116.9,404.3c0.1,0.2,0.3,0.4,0.4,0.6c-0.6,1-0.8,2.3-1.9,2.9l0,0C115.7,406.5,116.2,405.4,116.9,404.3z"/>
	<path class="st3" d="M657.4,406c0-0.2,0-0.4,0.1-0.6c0.8,1,1.2,2.2,1.5,3.4l0,0C658,408.1,657.6,407.1,657.4,406z"/>
	<path class="st0" d="M143.9,384.5c-0.4,0.6-1,1.1-1.8,1.2c-0.1-0.1-0.1-0.1-0.2-0.2c0.4-0.6,0.8-1.1,1.5-1.4
		C143.7,384.2,143.8,384.3,143.9,384.5z"/>
	<path class="st0" d="M658.9,399.5c1.3-0.1,1.6,0.4,1.9,1.1C660,400.8,659.7,400.2,658.9,399.5z"/>
	<path class="st0" d="M221.6,235.6c0.5-0.3,0.8,0,1.1,0.4c-0.1,0.1-0.2,0.1-0.2,0.2C222.1,236.2,221.7,236,221.6,235.6L221.6,235.6z
		"/>
	<path class="st0" d="M551.8,235.6c0.2-0.5,0.5-0.6,1-0.5l0,0C552.6,235.5,552.3,235.9,551.8,235.6L551.8,235.6z"/>
	<path class="st0" d="M141.6,386.1c-0.2,0.1-0.4,0.3-0.5,0.4c0-0.1,0-0.2,0-0.3C141.3,386.2,141.5,386.2,141.6,386.1L141.6,386.1z"
		/>
	<path class="st0" d="M211.7,399.2c-0.1,0.1-0.2,0.2-0.3,0.2c-0.1,0-0.2-0.1-0.3-0.2c0.1,0,0.1-0.1,0.2-0.1
		C211.4,399,211.5,399.1,211.7,399.2z"/>
	<path class="st0" d="M562.6,399c0.1,0.1,0.2,0.2,0.3,0.2c-0.1,0-0.3,0.1-0.4,0.1c-0.1,0-0.1-0.1-0.2-0.1
		C562.4,399.1,562.5,399.1,562.6,399z"/>
	<path class="st3" d="M115.5,407.8c0,0.4,0.1,0.9-0.5,1c0,0,0,0,0,0C115.2,408.5,115.3,408.2,115.5,407.8
		C115.5,407.8,115.5,407.8,115.5,407.8z"/>
	<path class="st3" d="M115,408.8c0,0.2,0,0.4-0.1,0.7C114.4,409.1,115,409,115,408.8C115,408.8,115,408.8,115,408.8z"/>
	<path class="st3" d="M658.9,408.8c0.1,0.2,0.2,0.4,0.3,0.5C658.7,409.3,659.1,408.9,658.9,408.8C659,408.8,658.9,408.8,658.9,408.8
		z"/>
	<path class="st0" d="M552.8,235.1c0-0.1,0.1-0.3,0.1-0.4C553.3,235.1,552.9,235,552.8,235.1C552.8,235.1,552.8,235.1,552.8,235.1z"
		/>
	<polygon class="st2" points="492.6,271.1 492.5,271.2 492.6,271.2 	"/>
	<path class="st0" d="M550.9,236.7c-0.2,0.3-0.3,0.5-0.6,0.2c0,0,0.2-0.3,0.4-0.5C550.7,236.5,550.8,236.6,550.9,236.7z"/>
	<path class="st0" d="M223.3,236.4c0.1,0.2,0.4,0.4,0.3,0.5c-0.3,0.3-0.5,0.1-0.6-0.2C223.1,236.6,223.2,236.5,223.3,236.4z"/>
	<path class="st0" d="M113.6,400.5c-0.1,0.2-0.2,0.4-0.5,0.2c0.1-0.2,0.2-0.3,0.3-0.5C113.4,400.4,113.5,400.4,113.6,400.5z"/>
	<path class="st0" d="M551.4,236.2c-0.2,0.2-0.3,0.3-0.5,0.5c-0.1-0.1-0.2-0.2-0.3-0.3c0.2-0.1,0.4-0.3,0.6-0.4
		C551.3,236.1,551.4,236.2,551.4,236.2z"/>
	<path class="st0" d="M222.7,236c0.2,0.1,0.4,0.2,0.7,0.3c-0.1,0.1-0.2,0.2-0.3,0.3c-0.2-0.1-0.4-0.3-0.6-0.4
		C222.5,236.2,222.6,236.1,222.7,236z"/>
	<path class="st0" d="M551.8,235.6c0.3,0.4-0.1,0.5-0.3,0.7c-0.1-0.1-0.1-0.1-0.2-0.2C551.4,235.9,551.6,235.7,551.8,235.6
		C551.8,235.6,551.8,235.6,551.8,235.6z"/>
	<path class="st0" d="M141.7,386.2c-0.3-0.4,0-0.5,0.3-0.7c0.1,0.1,0.1,0.1,0.2,0.2C142,385.8,141.8,386,141.7,386.2
		C141.6,386.1,141.7,386.2,141.7,386.2z"/>
	<polygon class="st0" points="112.2,401.2 112.4,401.1 112.4,401.3 	"/>
	<path class="st0" d="M221.6,235.6c-0.1-0.1-0.2-0.2-0.3-0.3c0.1,0,0.2,0,0.3-0.1C221.6,235.4,221.6,235.5,221.6,235.6
		C221.6,235.6,221.6,235.6,221.6,235.6z"/>
	<path class="st2" d="M324.3,662.5c-0.1-0.1-0.2-0.1-0.3-0.2c0.1,0,0.1,0,0.2,0C324.2,662.4,324.2,662.5,324.3,662.5
		C324.3,662.5,324.3,662.5,324.3,662.5z"/>
	<path class="st3" d="M449.6,662.5c0-0.1,0-0.1,0.1-0.2c0,0,0.1,0,0.1,0C449.8,662.4,449.7,662.4,449.6,662.5
		C449.6,662.5,449.6,662.5,449.6,662.5z"/>
	<path class="st3" d="M633.2,386.6c0.1,0.1,0.2,0.1,0.3,0.2C633.2,387,633.2,386.8,633.2,386.6C633.3,386.6,633.2,386.6,633.2,386.6
		z"/>
	<path class="st0" d="M661.5,401.3c0,0-0.1-0.1-0.1-0.1c0.1,0,0.1-0.1,0.2-0.1c0,0,0.1,0.1,0.1,0.1
		C661.7,401.3,661.6,401.3,661.5,401.3z"/>
	<path class="st0" d="M351.4,286.9c2.7-2.8,5.5-5.5,8.2-8.3c2-2,3.8-4.2,5.3-7c-2.2,0-4,0.1-5.9,0c-2.8-0.1-5.3-1-7.3-3
		c-2.4-2.4-2.4-4,0-6.5c0.5-0.5,1.1-0.9,1.8-1.5c-4.6-1.3-6.7-3.8-6.3-7.2c0.5-3.6,3.8-6.1,7.2-5.4c3.6,0.8,6.1,4.5,4.6,7.9
		c-1.4,3.2,0.2,5.1,2.1,6.8c5.5,5.3,6.5,5,8.3-2.3c1-4.2,1.3-8.4,1.8-12.7c0.2-1.5-0.4-2.2-1.8-3c-7.1-3.7-13.2-8.5-17.9-15.1
		c-3.4-4.7-4.4-9.6-1.4-14.9c1.2-2.1,2.2-4.4,3.4-6.6c0.6-1.1,0.9-1.8-0.4-2.8c-2.5-1.9-3-5.4-1.4-7.9c1.7-2.6,4.7-3.7,7.5-2.2
		c1.4,0.7,2,0.5,2.8-0.8c7.4-11.3,15.2-22.2,23.3-33c1.8-2.4,1.8-2.4,3.6,0.1c7.9,10.6,15.6,21.3,22.9,32.4c0.9,1.3,1.5,2.2,3.4,1.3
		c2.9-1.4,5.9-0.1,7.4,2.5c1.5,2.6,1,6-1.5,7.7c-1.6,1.1-1.1,1.7-0.4,2.9c1.2,2.2,2.2,4.4,3.4,6.6c3,5.4,1.8,10.3-1.6,15.1
		c-4.6,6.5-10.8,11.2-17.7,14.9c-1.5,0.8-1.9,1.7-1.8,3.2c0.6,5.6,1.2,11.3,2.9,16.7c0.5,1.7,1.2,2.1,2.7,1c1.1-0.8,2.4-1.5,3.5-2.3
		c3-2.2,3.7-4.3,2.8-7.9c-0.8-3.3,1-6.6,4.3-7.6c2.9-0.9,6.3,0.9,7.4,3.8c1.2,3.3-0.3,6.6-3.6,7.8c-0.7,0.3-1.4,0.4-2,0.7
		c0,0.5,0.4,0.7,0.7,0.9c3.6,3.4,3.3,5.9-1,8.5c-2.9,1.8-6,1.9-9.3,1.7c-0.6,0-1.4-0.4-1.8,0.2c-0.5,0.7,0.4,1.2,0.7,1.7
		c3.6,5.2,8.2,9.3,12.9,13.4l0,0c-3.7-0.7-6.6-3-9.7-5c-5.8-3.7-11-8-13.5-14.8c-2-5.4-3.5-10.9-4.4-16.6c-0.2-1.1-0.4-1.8-1.8-1.4
		c-4.4,1.1-8.8,1.1-13.2,0c-1.5-0.4-1.6,0.2-1.9,1.4c-0.6,3.1-1.4,6.2-2,9.4C373.7,274.1,363.6,281.5,351.4,286.9L351.4,286.9z
		 M386.9,231.2C386.9,231.2,386.9,231.2,386.9,231.2c0.8-0.1,1.6,0,2.5-0.1c5.6-0.4,9.5-3.2,10.3-7.8c0.4-2.4,0.3-4.9-0.2-7.3
		c-1.9-9.5-6.6-17.8-11.6-25.9c-0.7-1.2-1.2-1-1.9,0.1c-5.1,8.3-10.1,16.8-11.7,26.6c-1.2,7.2,0.1,12.7,9.1,14.2
		C384.5,231.2,385.7,231.1,386.9,231.2z"/>
	<path class="st3" d="M225.4,117.2c3.3,0,6.1,2.8,6,6.1c-0.1,3.2-2.8,6-5.9,6c-3.3,0.1-6.3-2.9-6.1-6.3
		C219.4,119.8,222.2,117.2,225.4,117.2z"/>
	<path class="st3" d="M548.6,117.2c3.2,0,6,2.8,5.9,6c-0.1,3.4-2.8,6.2-6.1,6.1c-3.2-0.1-6-2.9-6-6.1
		C542.5,120,545.3,117.2,548.6,117.2z"/>
	<path class="st2" d="M494.1,102.9c0-3.4,2.6-6,5.9-6c3.5,0,6,2.7,6,6.2c0,3.3-2.7,6-5.9,6C496.5,109.1,494,106.5,494.1,102.9z"/>
	<path class="st2" d="M279.9,103c0,3.4-2.7,6.1-6.1,6.1c-3.1,0-5.8-2.8-5.8-6.1c0-3.3,2.6-6,5.8-6.1
		C277.2,96.9,279.9,99.6,279.9,103z"/>
	<path class="st2" d="M254.3,114c0.1,3.4-2.4,6.1-5.7,6.1c-3.5,0.1-6.2-2.4-6.2-5.9c0-3.4,2.4-6,5.8-6.1
		C251.7,108.1,254.2,110.4,254.3,114z"/>
	<path class="st2" d="M341.1,134.4c-3.3,0-5.9-2.7-5.9-6c0-3.5,2.6-6,6.2-5.9c3.3,0.1,5.9,2.7,5.9,6
		C347.2,131.9,344.6,134.5,341.1,134.4z"/>
	<path class="st2" d="M432.9,122.5c3.3,0,5.9,2.6,5.8,6c0,3.3-2.9,6-6.2,5.9c-3.2-0.1-5.8-2.8-5.8-6.1
		C426.7,124.9,429.3,122.5,432.9,122.5z"/>
	<path class="st2" d="M525.4,108.3c3.5,0,5.7,2.4,5.7,5.9c0,3.6-2.5,6-6.1,5.9c-3.3-0.1-5.8-2.6-5.8-6
		C519.3,110.6,521.7,108.2,525.4,108.3z"/>
	<path class="st0" d="M163.6,220.2c-0.1,0-0.1,0-0.2-0.1c0.1-0.1,0.1-0.1,0.2-0.2c0,0,0.1,0.1,0.2,0.1
		C163.7,220.1,163.6,220.1,163.6,220.2z"/>
	<path class="st0" d="M350.4,287.4c0.2-0.4,0.5-0.6,1-0.5c0,0,0,0,0,0C351.2,287.4,350.8,287.3,350.4,287.4L350.4,287.4z"/>
	<path class="st0" d="M423,286.9c0.2,0.2,0.3,0.3,0.5,0.5c0,0,0,0,0,0C423.2,287.3,422.9,287.3,423,286.9L423,286.9z"/>
	<path class="st4" d="M136.2,380c-0.3,0.2-0.6,0.4-0.9,0.6c-0.1,0-0.5,0-0.2-0.4c0.2-0.2,0.4-0.4,0.7-0.6
		C136.1,379.4,136.1,379.7,136.2,380z"/>
	<path class="st4" d="M189.6,352.1c0,0.7-0.6,0.9-1,1.3C188.1,352.3,188.6,352,189.6,352.1z"/>
	<path class="st4" d="M638.3,379.8c0.1,0.1,0.2,0.2,0.3,0.3c0,0.1-0.1,0.2-0.2,0.4c-0.1-0.1-0.3-0.3-0.4-0.4
		C638.1,380,638.2,379.9,638.3,379.8z"/>
	<path class="st4" d="M585.6,352.6c-0.7,0.6-1,0.1-1.3-0.5C584.9,351.8,585.3,352.2,585.6,352.6z"/>
	<path class="st4" d="M190,351.6c0.1,0.5-0.1,0.6-0.5,0.5C189.4,351.6,189.7,351.6,190,351.6z"/>
	<path class="st4" d="M584.4,352.1c-0.4,0.1-0.6-0.1-0.5-0.5C584.2,351.6,584.5,351.7,584.4,352.1z"/>
	<path class="st4" d="M661.3,289.4c-0.1-0.1-0.2-0.3-0.2-0.4c0.2,0.1,0.3,0.1,0.5,0.2C661.5,289.3,661.4,289.4,661.3,289.4z"/>
	<path class="st4" d="M112.4,289.2c0.2-0.1,0.3-0.1,0.5-0.2c-0.1,0.2-0.1,0.3-0.2,0.5C112.5,289.4,112.5,289.3,112.4,289.2z"/>
	<path class="st4" d="M654.5,397c-0.1,0-0.2,0-0.3-0.1C654.4,396.5,654.4,396.9,654.5,397C654.5,397,654.5,397,654.5,397z"/>
	<path class="st4" d="M531.5,387.7c-0.1-0.1-0.3-0.3-0.3-0.3c0.2-0.3,0.3-0.1,0.4,0.1C531.6,387.6,531.5,387.7,531.5,387.7z"/>
	<path class="st2" d="M231.7,204.3c5-3.7,9.7-7.3,14.5-10.7c6.6-4.6,12.2-10.2,17.5-16.2c3-3.4,6.2-6.6,9.9-9.2
		c0.9-0.6,1.3-1.2,1.3-2.4c0.3-8.3,6.6-14.7,14.5-14.7c8-0.1,14.5,6.2,14.9,14.4c0.4,7.1-5.1,14-12.2,15.1c-1.3,0.2-2.2,0.7-3.2,1.6
		c-7.9,7.3-16.1,14.3-25.6,19.5c-9.7,5.3-19.8,6.6-30.4,3.2C232.7,204.8,232.5,204.7,231.7,204.3z M244.4,201.1
		c4.6,0.1,8.4-0.8,11.9-2.3c10.3-4.4,18.6-11.8,27.4-18.5c0.9-0.7,0.6-1.2-0.1-1.8c-1.8-1.6-3.7-3.2-5.5-5c-0.8-0.8-1.3-0.7-2-0.1
		c-2.3,2-4.6,3.9-6.8,6c-5.1,4.8-9.4,10.6-15.2,14.7C251,196.4,248,198.6,244.4,201.1z M289.5,175.9c5.4,0,9.9-4.3,10-9.8
		c0.1-5.2-4.6-9.9-9.9-10c-5.4-0.1-9.9,4.4-9.9,9.9C279.8,171.6,284,175.9,289.5,175.9z"/>
	<path class="st2" d="M542.3,204.4c-5.5,2.1-10.7,2.8-16,2.3c-11.5-1-20.5-7.3-29.3-14c-3.8-3-7.5-6.1-11-9.4
		c-1.2-1.1-2.3-2.3-4.3-2.6c-5.6-0.7-10.5-5.6-11.7-11c-1.4-6.2,1-12.3,6-15.8c4.9-3.4,11.3-3.6,16.2-0.3c4.2,2.8,6.6,6.8,6.7,11.9
		c0,1.4,0.4,2.2,1.6,3c5.5,3.7,9.6,8.9,14,13.8c6.2,6.8,13.8,11.8,21.1,17.3C537.7,201.1,539.8,202.6,542.3,204.4z M529.5,201.1
		c-1.2-0.8-1.8-1.3-2.5-1.8c-5.7-3.8-11.3-7.7-15.8-12.9c-4-4.5-8.2-8.7-12.9-12.5c-1.1-0.9-1.8-1.1-2.9,0c-1.6,1.7-3.3,3.2-5.1,4.7
		c-0.9,0.8-0.6,1.4,0.2,2c7.7,6,15.2,12.3,23.9,16.9C518.8,199.8,523.7,201.3,529.5,201.1z M484.5,175.9c5.4,0,9.6-4.3,9.7-9.8
		c0-5.5-4.4-10-9.7-10c-5.3,0-9.9,4.5-10,9.9C474.4,171.5,478.8,176,484.5,175.9z"/>
	<path class="st2" d="M392.9,287.5c0,3.4-2.4,5.9-5.8,5.9c-3.7,0-6.1-2.3-6.1-6.1c0-3.5,2.6-6.1,5.9-6.1
		C390.4,281.1,392.9,283.8,392.9,287.5z"/>
	<path class="st2" d="M289.7,161.2c2.6,0.1,4.7,2.4,4.6,5.1c-0.1,2.7-2.3,4.8-5,4.6c-2.5-0.1-4.6-2.3-4.5-4.9
		C284.9,163.3,287.1,161.1,289.7,161.2z"/>
	<path class="st3" d="M484.3,170.9c-2.6,0-4.7-2.3-4.7-5c0.1-2.6,2.1-4.7,4.7-4.8c2.6-0.1,4.8,2.2,4.8,4.9
		C489.1,168.8,486.9,170.9,484.3,170.9z"/>
</g>
</svg>
